<svg width="16" height="20" viewBox="0 0 16 20" fill="none" xmlns="http://www.w3.org/2000/svg">
<path d="M13.3627 10.6051C13.3903 13.626 15.9715 14.6313 16 14.6441C15.9781 14.715 15.5876 16.0767 14.6402 17.4832C13.8212 18.6993 12.9711 19.9109 11.6321 19.9359C10.3165 19.9606 9.89333 19.1434 8.38908 19.1434C6.88527 19.1434 6.4152 19.9109 5.1697 19.9606C3.8772 20.0103 2.89295 18.6457 2.0672 17.434C0.379704 14.9557 -0.909859 10.4309 0.821704 7.37651C1.68189 5.85968 3.2192 4.89924 4.8877 4.8746C6.15689 4.85003 7.35489 5.74203 8.13077 5.74203C8.90614 5.74203 10.362 4.66933 11.8924 4.82686C12.533 4.85397 14.3315 5.08971 15.4863 6.80692C15.3932 6.86552 13.3404 8.07956 13.3627 10.6051M10.89 3.18724C11.5763 2.34343 12.0381 1.16883 11.9121 0C10.923 0.040381 9.72695 0.669587 9.01745 1.51289C8.38164 2.25975 7.82483 3.45505 7.97508 4.6007C9.07758 4.68737 10.2038 4.03156 10.89 3.18724Z" fill="#1E1E1E"/>
</svg>
