<svg width="29" height="29" viewBox="0 0 29 29" fill="none" xmlns="http://www.w3.org/2000/svg">
<path d="M28.3839 14.1919C28.3839 6.35401 22.0299 0 14.1919 0C6.35402 0 0 6.35401 0 14.1919C0 20.8474 4.58229 26.4322 10.7637 27.9661V18.529H7.83736V14.1919H10.7637V12.3231C10.7637 7.49278 12.9499 5.25386 17.6922 5.25386C18.5914 5.25386 20.1429 5.4304 20.7776 5.60638V9.53755C20.4426 9.50235 19.8608 9.48476 19.1381 9.48476C16.8112 9.48476 15.912 10.3664 15.912 12.6581V14.1919H20.5477L19.7512 18.529H15.912V28.28C22.9393 27.4313 28.3844 21.448 28.3844 14.1919H28.3839Z" fill="#1E1E1E"/>
</svg>
