<svg width="99" height="99" viewBox="0 0 99 99" fill="none" xmlns="http://www.w3.org/2000/svg">
<rect width="99" height="99" rx="49.5" fill="#EFA506" fill-opacity="0.1"/>
<g clip-path="url(#clip0_147_122)">
<path d="M62.6667 34.6519C62.4617 33.7713 62.0799 32.9416 61.5442 32.2132C61.0086 31.4849 60.3304 30.8731 59.5509 30.4151C58.7714 29.957 57.9069 29.6623 57.0099 29.5489C56.113 29.4355 55.2023 29.5057 54.3333 29.7552L51.46 30.5769C50.7321 30.7861 50.0617 31.1589 49.5 31.6669C48.9383 31.1589 48.2679 30.7861 47.54 30.5769L44.6667 29.7552C43.7982 29.507 42.8884 29.4378 41.9924 29.5518C41.0964 29.6659 40.2329 29.9608 39.4544 30.4188C38.6758 30.8767 37.9985 31.4881 37.4634 32.2157C36.9283 32.9434 36.5467 33.7722 36.3417 34.6519C34.4247 35.0007 32.6905 36.0101 31.4406 37.5049C30.1906 38.9996 29.504 40.8851 29.5 42.8335V54.5002C29.5026 56.7095 30.3815 58.8276 31.9437 60.3898C33.5059 61.9521 35.624 62.8309 37.8333 62.8335H47.8333V66.1669H42.8333C42.3913 66.1669 41.9674 66.3425 41.6548 66.655C41.3423 66.9676 41.1667 67.3915 41.1667 67.8335C41.1667 68.2756 41.3423 68.6995 41.6548 69.0121C41.9674 69.3246 42.3913 69.5002 42.8333 69.5002H56.1667C56.6087 69.5002 57.0326 69.3246 57.3452 69.0121C57.6577 68.6995 57.8333 68.2756 57.8333 67.8335C57.8333 67.3915 57.6577 66.9676 57.3452 66.655C57.0326 66.3425 56.6087 66.1669 56.1667 66.1669H51.1667V62.8335H61.1667C63.376 62.8309 65.4941 61.9521 67.0563 60.3898C68.6185 58.8276 69.4974 56.7095 69.5 54.5002V42.8335C69.4964 40.8863 68.8109 39.0018 67.5626 37.5072C66.3144 36.0126 64.5821 35.0024 62.6667 34.6519V34.6519ZM51.1667 35.3852C51.1668 35.0232 51.2848 34.6712 51.5028 34.3822C51.7208 34.0932 52.027 33.8831 52.375 33.7835L55.25 32.9619C55.7461 32.82 56.2684 32.7952 56.7758 32.8895C57.2831 32.9838 57.7617 33.1946 58.1737 33.5053C58.5857 33.816 58.9199 34.2181 59.1501 34.68C59.3802 35.1418 59.5 35.6508 59.5 36.1669V42.7302C59.4977 43.4535 59.2609 44.1565 58.8252 44.7337C58.3894 45.311 57.7783 45.7314 57.0833 45.9319L51.1667 47.6219V35.3852ZM40.8333 33.5002C41.2445 33.1906 41.7221 32.9809 42.2282 32.8874C42.7344 32.794 43.2554 32.8195 43.75 32.9619L46.625 33.7835C46.973 33.8831 47.2792 34.0932 47.4972 34.3822C47.7152 34.6712 47.8332 35.0232 47.8333 35.3852V47.6219L41.9167 45.9319C41.2217 45.7314 40.6106 45.311 40.1748 44.7337C39.7391 44.1565 39.5023 43.4535 39.5 42.7302V36.1669C39.4983 35.6491 39.618 35.1381 39.8496 34.675C40.0812 34.2119 40.4181 33.8095 40.8333 33.5002V33.5002ZM66.1667 54.5002C66.1667 55.8263 65.6399 57.0981 64.7022 58.0357C63.7645 58.9734 62.4927 59.5002 61.1667 59.5002H37.8333C36.5073 59.5002 35.2355 58.9734 34.2978 58.0357C33.3601 57.0981 32.8333 55.8263 32.8333 54.5002V42.8335C32.8376 41.8031 33.1601 40.7992 33.7568 39.959C34.3535 39.1189 35.1952 38.4837 36.1667 38.1402V42.7302C36.1707 44.1774 36.644 45.5843 37.5155 46.7398C38.387 47.8952 39.6096 48.7369 41 49.1385L46.7517 50.7835C48.5492 51.2959 50.4541 51.2959 52.2517 50.7835L58.0033 49.1385C59.3931 48.7363 60.615 47.8944 61.4858 46.739C62.3567 45.5836 62.8295 44.177 62.8333 42.7302V38.1402C63.8048 38.4837 64.6465 39.1189 65.2432 39.959C65.8399 40.7992 66.1624 41.8031 66.1667 42.8335V54.5002Z" fill="#EFA506"/>
</g>
<defs>
<clipPath id="clip0_147_122">
<rect width="40" height="40" fill="white" transform="translate(29.5 29.5)"/>
</clipPath>
</defs>
</svg>
