<svg width="99" height="99" viewBox="0 0 99 99" fill="none" xmlns="http://www.w3.org/2000/svg">
<rect width="99" height="99" rx="49.5" fill="#FF5D60" fill-opacity="0.1"/>
<g clip-path="url(#clip0_147_135)">
<path d="M49.5 49.5C51.4778 49.5 53.4112 48.9135 55.0557 47.8147C56.7002 46.7159 57.9819 45.1541 58.7388 43.3268C59.4957 41.4996 59.6937 39.4889 59.3079 37.5491C58.922 35.6093 57.9696 33.8275 56.5711 32.4289C55.1725 31.0304 53.3907 30.078 51.4509 29.6922C49.5111 29.3063 47.5004 29.5043 45.6732 30.2612C43.8459 31.0181 42.2841 32.2998 41.1853 33.9443C40.0865 35.5888 39.5 37.5222 39.5 39.5C39.5026 42.1514 40.5571 44.6934 42.4319 46.5681C44.3066 48.4429 46.8486 49.4974 49.5 49.5ZM49.5 32.8333C50.8185 32.8333 52.1075 33.2243 53.2038 33.9569C54.3001 34.6894 55.1546 35.7306 55.6592 36.9488C56.1638 38.167 56.2958 39.5074 56.0386 40.8006C55.7813 42.0938 55.1464 43.2817 54.214 44.2141C53.2817 45.1464 52.0938 45.7813 50.8006 46.0386C49.5074 46.2958 48.167 46.1638 46.9488 45.6592C45.7306 45.1546 44.6894 44.3001 43.9569 43.2038C43.2243 42.1075 42.8333 40.8185 42.8333 39.5C42.8333 37.7319 43.5357 36.0362 44.786 34.786C46.0362 33.5357 47.7319 32.8333 49.5 32.8333Z" fill="#FF5D60"/>
<path d="M49.5 52.8345C45.5231 52.8389 41.7104 54.4207 38.8983 57.2327C36.0862 60.0448 34.5044 63.8576 34.5 67.8345C34.5 68.2765 34.6756 68.7004 34.9882 69.013C35.3007 69.3255 35.7246 69.5011 36.1667 69.5011C36.6087 69.5011 37.0326 69.3255 37.3452 69.013C37.6577 68.7004 37.8333 68.2765 37.8333 67.8345C37.8333 64.7403 39.0625 61.7728 41.2504 59.5849C43.4383 57.397 46.4058 56.1678 49.5 56.1678C52.5942 56.1678 55.5617 57.397 57.7496 59.5849C59.9375 61.7728 61.1667 64.7403 61.1667 67.8345C61.1667 68.2765 61.3423 68.7004 61.6548 69.013C61.9674 69.3255 62.3913 69.5011 62.8333 69.5011C63.2754 69.5011 63.6993 69.3255 64.0118 69.013C64.3244 68.7004 64.5 68.2765 64.5 67.8345C64.4956 63.8576 62.9138 60.0448 60.1017 57.2327C57.2896 54.4207 53.4769 52.8389 49.5 52.8345Z" fill="#FF5D60"/>
</g>
<defs>
<clipPath id="clip0_147_135">
<rect width="40" height="40" fill="white" transform="translate(29.5 29.5)"/>
</clipPath>
</defs>
</svg>
