<svg width="349" height="194" viewBox="0 0 349 194" fill="none" xmlns="http://www.w3.org/2000/svg">
<rect x="1.04179" y="1.04179" width="346.916" height="191.492" rx="30.2119" fill="white"/>
<rect x="1.04179" y="1.04179" width="346.916" height="191.492" rx="30.2119" stroke="#F4F4F4" stroke-width="2.08358"/>
<path d="M37.2628 37.7037V42.4626H35.646V37.7037L31.2705 30.5196H32.6873C32.8318 30.5196 32.9457 30.5557 33.029 30.6279C33.1123 30.6946 33.1846 30.7835 33.2457 30.8946L35.9793 35.5368C36.0794 35.7313 36.171 35.9146 36.2544 36.0869C36.3377 36.2536 36.41 36.423 36.4711 36.5953C36.5322 36.423 36.6016 36.2536 36.6794 36.0869C36.7572 35.9146 36.8433 35.7313 36.9378 35.5368L39.6631 30.8946C39.7131 30.8001 39.7826 30.714 39.8715 30.6362C39.9604 30.5584 40.0743 30.5196 40.2132 30.5196H41.6384L37.2628 37.7037ZM44.5662 33.8866C45.1829 33.8866 45.7385 33.9894 46.233 34.195C46.7276 34.4006 47.1498 34.6923 47.4999 35.0701C47.8499 35.4479 48.1166 35.9063 48.3 36.4453C48.4889 36.9787 48.5833 37.576 48.5833 38.2371C48.5833 38.9039 48.4889 39.504 48.3 40.0374C48.1166 40.5708 47.8499 41.0264 47.4999 41.4042C47.1498 41.782 46.7276 42.0737 46.233 42.2793C45.7385 42.4793 45.1829 42.5793 44.5662 42.5793C43.9439 42.5793 43.3827 42.4793 42.8826 42.2793C42.3881 42.0737 41.9659 41.782 41.6158 41.4042C41.2658 41.0264 40.9963 40.5708 40.8074 40.0374C40.624 39.504 40.5324 38.9039 40.5324 38.2371C40.5324 37.576 40.624 36.9787 40.8074 36.4453C40.9963 35.9063 41.2658 35.4479 41.6158 35.0701C41.9659 34.6923 42.3881 34.4006 42.8826 34.195C43.3827 33.9894 43.9439 33.8866 44.5662 33.8866ZM44.5662 41.4209C45.3996 41.4209 46.0219 41.143 46.4331 40.5874C46.8442 40.0262 47.0498 39.2456 47.0498 38.2455C47.0498 37.2398 46.8442 36.4564 46.4331 35.8952C46.0219 35.334 45.3996 35.0534 44.5662 35.0534C44.1439 35.0534 43.7744 35.1257 43.4577 35.2701C43.1466 35.4146 42.8854 35.6229 42.6743 35.8952C42.4687 36.1674 42.3131 36.5036 42.2076 36.9036C42.1076 37.2981 42.0576 37.7454 42.0576 38.2455C42.0576 39.2456 42.2631 40.0262 42.6743 40.5874C43.091 41.143 43.7216 41.4209 44.5662 41.4209ZM57.4074 34.02V42.4626H56.524C56.3129 42.4626 56.1795 42.3599 56.1239 42.1543L56.0073 41.2458C55.6406 41.6514 55.2294 41.9793 54.7738 42.2293C54.3182 42.4738 53.7959 42.596 53.2069 42.596C52.7458 42.596 52.3374 42.521 51.9818 42.371C51.6317 42.2154 51.3373 41.9987 51.0983 41.7209C50.8594 41.4431 50.6788 41.1069 50.5566 40.7124C50.4399 40.3179 50.3816 39.8818 50.3816 39.4039V34.02H51.8651V39.4039C51.8651 40.0429 52.0096 40.5374 52.2985 40.8875C52.593 41.2375 53.0402 41.4125 53.6403 41.4125C54.0793 41.4125 54.4876 41.3097 54.8655 41.1042C55.2488 40.893 55.6017 40.6041 55.9239 40.2374V34.02H57.4074ZM61.1682 35.7118C61.4349 35.134 61.7627 34.6839 62.1516 34.3617C62.5406 34.0339 63.0156 33.87 63.5768 33.87C63.7546 33.87 63.9241 33.8894 64.0852 33.9283C64.2519 33.9672 64.3991 34.0283 64.5269 34.1116L64.4186 35.2201C64.3852 35.359 64.3019 35.4285 64.1685 35.4285C64.0907 35.4285 63.9768 35.4118 63.8268 35.3785C63.6768 35.3451 63.5073 35.3285 63.3184 35.3285C63.0517 35.3285 62.8128 35.3674 62.6017 35.4451C62.3961 35.5229 62.21 35.6396 62.0433 35.7952C61.8821 35.9452 61.7349 36.1341 61.6016 36.3619C61.4738 36.5842 61.3571 36.8398 61.2515 37.1287V42.4626H59.7597V34.02H60.6098C60.7709 34.02 60.882 34.0505 60.9431 34.1116C61.0043 34.1728 61.0459 34.2783 61.0682 34.4284L61.1682 35.7118ZM72.33 42.596C71.6633 42.596 71.1494 42.4099 70.7882 42.0376C70.4326 41.6653 70.2548 41.1292 70.2548 40.4291V35.2618H69.238C69.1491 35.2618 69.0741 35.2368 69.013 35.1868C68.9519 35.1312 68.9213 35.0479 68.9213 34.9367V34.345L70.3048 34.17L70.6465 31.5613C70.6632 31.478 70.6993 31.4113 70.7549 31.3613C70.816 31.3058 70.8938 31.278 70.9882 31.278H71.7383V34.1867H74.1803V35.2618H71.7383V40.3291C71.7383 40.6847 71.8244 40.9486 71.9967 41.1208C72.1689 41.2931 72.3912 41.3792 72.6634 41.3792C72.819 41.3792 72.9523 41.3597 73.0635 41.3208C73.1801 41.2764 73.2802 41.2292 73.3635 41.1792C73.4468 41.1292 73.5163 41.0847 73.5719 41.0458C73.633 41.0014 73.6858 40.9791 73.7302 40.9791C73.808 40.9791 73.8775 41.0264 73.9386 41.1208L74.372 41.8292C74.1164 42.0682 73.808 42.2571 73.4468 42.396C73.0857 42.5293 72.7134 42.596 72.33 42.596ZM79.222 33.8866C79.8388 33.8866 80.3944 33.9894 80.8889 34.195C81.3834 34.4006 81.8057 34.6923 82.1557 35.0701C82.5057 35.4479 82.7724 35.9063 82.9558 36.4453C83.1447 36.9787 83.2392 37.576 83.2392 38.2371C83.2392 38.9039 83.1447 39.504 82.9558 40.0374C82.7724 40.5708 82.5057 41.0264 82.1557 41.4042C81.8057 41.782 81.3834 42.0737 80.8889 42.2793C80.3944 42.4793 79.8388 42.5793 79.222 42.5793C78.5997 42.5793 78.0385 42.4793 77.5385 42.2793C77.044 42.0737 76.6217 41.782 76.2717 41.4042C75.9216 41.0264 75.6521 40.5708 75.4632 40.0374C75.2799 39.504 75.1882 38.9039 75.1882 38.2371C75.1882 37.576 75.2799 36.9787 75.4632 36.4453C75.6521 35.9063 75.9216 35.4479 76.2717 35.0701C76.6217 34.6923 77.044 34.4006 77.5385 34.195C78.0385 33.9894 78.5997 33.8866 79.222 33.8866ZM79.222 41.4209C80.0555 41.4209 80.6778 41.143 81.0889 40.5874C81.5001 40.0262 81.7057 39.2456 81.7057 38.2455C81.7057 37.2398 81.5001 36.4564 81.0889 35.8952C80.6778 35.334 80.0555 35.0534 79.222 35.0534C78.7997 35.0534 78.4303 35.1257 78.1136 35.2701C77.8024 35.4146 77.5413 35.6229 77.3301 35.8952C77.1245 36.1674 76.969 36.5036 76.8634 36.9036C76.7634 37.2981 76.7134 37.7454 76.7134 38.2455C76.7134 39.2456 76.919 40.0262 77.3301 40.5874C77.7468 41.143 78.3775 41.4209 79.222 41.4209ZM86.6126 40.4291C86.8849 40.7958 87.1821 41.0541 87.5044 41.2042C87.8266 41.3542 88.1878 41.4292 88.5879 41.4292C89.3768 41.4292 89.9825 41.1486 90.4047 40.5874C90.827 40.0262 91.0381 39.2261 91.0381 38.1871C91.0381 37.6371 90.9881 37.1648 90.8881 36.7703C90.7937 36.3758 90.6548 36.0535 90.4714 35.8035C90.2881 35.5479 90.063 35.3618 89.7963 35.2451C89.5296 35.1284 89.2268 35.0701 88.8879 35.0701C88.4045 35.0701 87.9794 35.1812 87.6127 35.4035C87.2516 35.6257 86.9182 35.9396 86.6126 36.3452V40.4291ZM86.5376 35.3285C86.8932 34.8895 87.3044 34.5367 87.7711 34.27C88.2378 34.0033 88.7712 33.87 89.3713 33.87C89.8602 33.87 90.3019 33.9644 90.6964 34.1533C91.0909 34.3367 91.4271 34.6117 91.7049 34.9784C91.9827 35.3396 92.1966 35.7896 92.3466 36.3286C92.4967 36.8675 92.5717 37.4871 92.5717 38.1871C92.5717 38.8094 92.4883 39.3901 92.3216 39.929C92.1549 40.4624 91.9132 40.9264 91.5965 41.3208C91.2854 41.7098 90.902 42.0181 90.4464 42.246C89.9964 42.4682 89.488 42.5793 88.9212 42.5793C88.4045 42.5793 87.96 42.4932 87.5877 42.321C87.221 42.1432 86.896 41.8987 86.6126 41.5875V45.3213H85.1208V34.02H86.0125C86.2237 34.02 86.3543 34.1228 86.4043 34.3283L86.5376 35.3285ZM103.638 38.1538V33.2282C103.638 33.0837 103.644 32.9254 103.655 32.7532C103.666 32.5809 103.683 32.4059 103.705 32.2281L99.3542 38.1538H103.638ZM106.747 38.1538V39.0039C106.747 39.0928 106.719 39.1678 106.663 39.2289C106.613 39.29 106.533 39.3206 106.422 39.3206H104.938V42.4626H103.638V39.3206H98.3375C98.2263 39.3206 98.1291 39.29 98.0458 39.2289C97.968 39.1623 97.918 39.0817 97.8957 38.9872L97.7457 38.2288L103.555 30.5196H104.938V38.1538H106.747ZM119.122 32.3864C119.072 32.4698 119.017 32.5337 118.956 32.5781C118.9 32.617 118.831 32.6365 118.747 32.6365C118.653 32.6365 118.542 32.5892 118.414 32.4948C118.286 32.4003 118.125 32.2975 117.93 32.1864C117.742 32.0697 117.511 31.9642 117.239 31.8697C116.972 31.7753 116.647 31.728 116.264 31.728C115.902 31.728 115.583 31.778 115.305 31.878C115.033 31.9725 114.802 32.1031 114.613 32.2698C114.43 32.4364 114.291 32.6337 114.197 32.8615C114.102 33.0837 114.055 33.3254 114.055 33.5866C114.055 33.92 114.136 34.1978 114.297 34.42C114.463 34.6367 114.68 34.8228 114.947 34.9784C115.219 35.134 115.525 35.2701 115.864 35.3868C116.208 35.4979 116.558 35.6146 116.914 35.7368C117.275 35.8591 117.625 35.998 117.964 36.1536C118.308 36.3036 118.614 36.4953 118.881 36.7286C119.153 36.962 119.369 37.2481 119.531 37.5871C119.697 37.926 119.781 38.3427 119.781 38.8372C119.781 39.3595 119.692 39.8512 119.514 40.3124C119.336 40.768 119.075 41.1653 118.731 41.5042C118.392 41.8431 117.972 42.1098 117.472 42.3043C116.978 42.4988 116.414 42.596 115.78 42.596C115.002 42.596 114.297 42.4571 113.663 42.1793C113.03 41.8959 112.488 41.5153 112.038 41.0375L112.505 40.2707C112.549 40.2096 112.602 40.1596 112.663 40.1207C112.73 40.0763 112.802 40.054 112.88 40.054C112.952 40.054 113.033 40.0846 113.122 40.1457C113.216 40.2013 113.322 40.2735 113.438 40.3624C113.555 40.4513 113.688 40.5485 113.838 40.6541C113.988 40.7597 114.158 40.8569 114.347 40.9458C114.541 41.0347 114.761 41.1097 115.005 41.1708C115.25 41.2264 115.525 41.2542 115.83 41.2542C116.214 41.2542 116.555 41.2014 116.855 41.0958C117.155 40.9902 117.408 40.843 117.614 40.6541C117.825 40.4596 117.986 40.229 118.097 39.9623C118.208 39.6956 118.264 39.3984 118.264 39.0706C118.264 38.7094 118.18 38.4149 118.014 38.1871C117.853 37.9538 117.639 37.7593 117.372 37.6037C117.105 37.4482 116.8 37.3176 116.455 37.212C116.111 37.1009 115.761 36.9898 115.405 36.8786C115.05 36.762 114.699 36.6286 114.355 36.4786C114.011 36.3286 113.705 36.1341 113.438 35.8952C113.172 35.6563 112.955 35.359 112.788 35.0034C112.627 34.6423 112.546 34.1978 112.546 33.6699C112.546 33.2477 112.627 32.8393 112.788 32.4448C112.955 32.0503 113.194 31.7002 113.505 31.3947C113.822 31.0891 114.208 30.8446 114.663 30.6612C115.125 30.4779 115.652 30.3862 116.247 30.3862C116.914 30.3862 117.519 30.4918 118.064 30.7029C118.614 30.914 119.097 31.2196 119.514 31.6197L119.122 32.3864ZM127.316 37.3204C127.316 36.9759 127.266 36.662 127.166 36.3786C127.071 36.0897 126.929 35.8424 126.74 35.6368C126.557 35.4257 126.332 35.2646 126.065 35.1534C125.799 35.0368 125.496 34.9784 125.157 34.9784C124.446 34.9784 123.882 35.1868 123.465 35.6035C123.054 36.0147 122.798 36.5869 122.698 37.3204H127.316ZM128.516 41.2792C128.332 41.5014 128.113 41.6959 127.857 41.8626C127.602 42.0237 127.327 42.1571 127.032 42.2626C126.743 42.3682 126.443 42.446 126.132 42.496C125.821 42.5515 125.513 42.5793 125.207 42.5793C124.624 42.5793 124.085 42.4821 123.59 42.2876C123.101 42.0876 122.676 41.7987 122.315 41.4209C121.959 41.0375 121.682 40.5652 121.482 40.004C121.281 39.4428 121.181 38.7983 121.181 38.0705C121.181 37.4815 121.27 36.9314 121.448 36.4203C121.632 35.9091 121.893 35.4674 122.232 35.0951C122.571 34.7173 122.984 34.4228 123.473 34.2117C123.962 33.995 124.512 33.8866 125.124 33.8866C125.629 33.8866 126.096 33.9727 126.524 34.145C126.957 34.3117 127.329 34.5561 127.641 34.8784C127.957 35.1951 128.205 35.5896 128.382 36.0619C128.56 36.5286 128.649 37.062 128.649 37.6621C128.649 37.8954 128.624 38.051 128.574 38.1288C128.524 38.2066 128.43 38.2455 128.291 38.2455H122.648C122.665 38.7789 122.737 39.2428 122.865 39.6373C122.998 40.0318 123.182 40.3624 123.415 40.6291C123.648 40.8902 123.926 41.0875 124.248 41.2208C124.571 41.3486 124.932 41.4125 125.332 41.4125C125.704 41.4125 126.024 41.3708 126.29 41.2875C126.563 41.1986 126.796 41.1042 126.99 41.0041C127.185 40.9041 127.346 40.8124 127.474 40.7291C127.607 40.6402 127.721 40.5958 127.816 40.5958C127.938 40.5958 128.032 40.643 128.099 40.7374L128.516 41.2792ZM131.88 35.7118C132.146 35.134 132.474 34.6839 132.863 34.3617C133.252 34.0339 133.727 33.87 134.288 33.87C134.466 33.87 134.636 33.8894 134.797 33.9283C134.963 33.9672 135.111 34.0283 135.238 34.1116L135.13 35.2201C135.097 35.359 135.013 35.4285 134.88 35.4285C134.802 35.4285 134.688 35.4118 134.538 35.3785C134.388 35.3451 134.219 35.3285 134.03 35.3285C133.763 35.3285 133.524 35.3674 133.313 35.4451C133.108 35.5229 132.922 35.6396 132.755 35.7952C132.594 35.9452 132.446 36.1341 132.313 36.3619C132.185 36.5842 132.069 36.8398 131.963 37.1287V42.4626H130.471V34.02H131.321C131.482 34.02 131.594 34.0505 131.655 34.1116C131.716 34.1728 131.758 34.2783 131.78 34.4284L131.88 35.7118ZM143.777 34.02L140.335 42.4626H139.002L135.559 34.02H136.768C136.89 34.02 136.99 34.0505 137.068 34.1116C137.146 34.1728 137.199 34.245 137.226 34.3283L139.368 39.7623C139.435 39.9679 139.493 40.1679 139.543 40.3624C139.593 40.5569 139.641 40.7513 139.685 40.9458C139.729 40.7513 139.777 40.5569 139.827 40.3624C139.877 40.1679 139.938 39.9679 140.01 39.7623L142.177 34.3283C142.21 34.2394 142.266 34.1672 142.344 34.1116C142.421 34.0505 142.513 34.02 142.619 34.02H143.777ZM146.705 34.02V42.4626H145.221V34.02H146.705ZM147.021 31.3697C147.021 31.5141 146.991 31.6502 146.93 31.778C146.874 31.9003 146.796 32.0114 146.696 32.1114C146.602 32.2059 146.488 32.2809 146.355 32.3364C146.227 32.392 146.091 32.4198 145.946 32.4198C145.802 32.4198 145.666 32.392 145.538 32.3364C145.416 32.2809 145.307 32.2059 145.213 32.1114C145.118 32.0114 145.043 31.9003 144.988 31.778C144.932 31.6502 144.904 31.5141 144.904 31.3697C144.904 31.2252 144.932 31.0891 144.988 30.9613C145.043 30.8279 145.118 30.714 145.213 30.6196C145.307 30.5196 145.416 30.4418 145.538 30.3862C145.666 30.3306 145.802 30.3029 145.946 30.3029C146.091 30.3029 146.227 30.3306 146.355 30.3862C146.488 30.4418 146.602 30.5196 146.696 30.6196C146.796 30.714 146.874 30.8279 146.93 30.9613C146.991 31.0891 147.021 31.2252 147.021 31.3697ZM155.018 35.5201C154.973 35.5813 154.929 35.6285 154.884 35.6618C154.84 35.6952 154.779 35.7118 154.701 35.7118C154.618 35.7118 154.526 35.6785 154.426 35.6118C154.326 35.5396 154.201 35.4618 154.051 35.3785C153.907 35.2951 153.726 35.2201 153.509 35.1534C153.298 35.0812 153.037 35.0451 152.726 35.0451C152.309 35.0451 151.942 35.1201 151.626 35.2701C151.309 35.4146 151.042 35.6257 150.826 35.9035C150.614 36.1813 150.453 36.5175 150.342 36.912C150.237 37.3065 150.184 37.7482 150.184 38.2371C150.184 38.7483 150.242 39.2039 150.359 39.604C150.476 39.9985 150.639 40.3318 150.851 40.6041C151.067 40.8708 151.326 41.0764 151.626 41.2208C151.931 41.3597 152.273 41.4292 152.651 41.4292C153.012 41.4292 153.309 41.3875 153.543 41.3042C153.776 41.2153 153.968 41.118 154.118 41.0125C154.273 40.9069 154.401 40.8124 154.501 40.7291C154.607 40.6402 154.709 40.5958 154.809 40.5958C154.932 40.5958 155.026 40.643 155.093 40.7374L155.51 41.2792C155.326 41.507 155.118 41.7014 154.884 41.8626C154.651 42.0237 154.398 42.1598 154.126 42.271C153.859 42.3765 153.579 42.4543 153.284 42.5043C152.99 42.5543 152.69 42.5793 152.384 42.5793C151.856 42.5793 151.365 42.4821 150.909 42.2876C150.459 42.0932 150.067 41.8126 149.734 41.4459C149.4 41.0736 149.139 40.618 148.95 40.079C148.761 39.5401 148.667 38.9261 148.667 38.2371C148.667 37.6093 148.753 37.0287 148.925 36.4953C149.103 35.9619 149.359 35.5035 149.692 35.1201C150.031 34.7312 150.445 34.4284 150.934 34.2117C151.428 33.995 151.995 33.8866 152.634 33.8866C153.229 33.8866 153.751 33.9839 154.201 34.1783C154.657 34.3672 155.059 34.6367 155.41 34.9868L155.018 35.5201ZM162.606 37.3204C162.606 36.9759 162.556 36.662 162.456 36.3786C162.362 36.0897 162.22 35.8424 162.031 35.6368C161.848 35.4257 161.623 35.2646 161.356 35.1534C161.089 35.0368 160.787 34.9784 160.448 34.9784C159.736 34.9784 159.172 35.1868 158.756 35.6035C158.345 36.0147 158.089 36.5869 157.989 37.3204H162.606ZM163.806 41.2792C163.623 41.5014 163.404 41.6959 163.148 41.8626C162.892 42.0237 162.617 42.1571 162.323 42.2626C162.034 42.3682 161.734 42.446 161.423 42.496C161.112 42.5515 160.803 42.5793 160.498 42.5793C159.914 42.5793 159.375 42.4821 158.881 42.2876C158.392 42.0876 157.967 41.7987 157.606 41.4209C157.25 41.0375 156.972 40.5652 156.772 40.004C156.572 39.4428 156.472 38.7983 156.472 38.0705C156.472 37.4815 156.561 36.9314 156.739 36.4203C156.922 35.9091 157.183 35.4674 157.522 35.0951C157.861 34.7173 158.275 34.4228 158.764 34.2117C159.253 33.995 159.803 33.8866 160.414 33.8866C160.92 33.8866 161.387 33.9727 161.814 34.145C162.248 34.3117 162.62 34.5561 162.931 34.8784C163.248 35.1951 163.495 35.5896 163.673 36.0619C163.851 36.5286 163.94 37.062 163.94 37.6621C163.94 37.8954 163.915 38.051 163.865 38.1288C163.815 38.2066 163.72 38.2455 163.581 38.2455H157.939C157.956 38.7789 158.028 39.2428 158.156 39.6373C158.289 40.0318 158.472 40.3624 158.706 40.6291C158.939 40.8902 159.217 41.0875 159.539 41.2208C159.861 41.3486 160.223 41.4125 160.623 41.4125C160.995 41.4125 161.314 41.3708 161.581 41.2875C161.853 41.1986 162.087 41.1042 162.281 41.0041C162.476 40.9041 162.637 40.8124 162.765 40.7291C162.898 40.6402 163.012 40.5958 163.106 40.5958C163.229 40.5958 163.323 40.643 163.39 40.7374L163.806 41.2792ZM173.686 36.3036C174.152 36.3036 174.563 36.248 174.919 36.1369C175.28 36.0202 175.58 35.8591 175.819 35.6535C176.064 35.4424 176.247 35.1923 176.369 34.9034C176.491 34.6145 176.553 34.295 176.553 33.945C176.553 33.2338 176.319 32.6976 175.852 32.3364C175.386 31.9753 174.686 31.7947 173.752 31.7947H171.985V36.3036H173.686ZM179.203 42.4626H177.769C177.475 42.4626 177.258 42.3487 177.119 42.1209L174.019 37.8538C173.924 37.7204 173.822 37.626 173.711 37.5704C173.605 37.5093 173.438 37.4787 173.21 37.4787H171.985V42.4626H170.377V30.5196H173.752C174.508 30.5196 175.161 30.5973 175.711 30.7529C176.261 30.9029 176.714 31.1224 177.069 31.4113C177.43 31.7002 177.697 32.0503 177.869 32.4615C178.042 32.8671 178.128 33.3227 178.128 33.8283C178.128 34.2506 178.061 34.645 177.928 35.0118C177.794 35.3785 177.6 35.7091 177.344 36.0035C177.094 36.2925 176.786 36.5397 176.419 36.7453C176.058 36.9509 175.647 37.1065 175.186 37.212C175.391 37.3287 175.569 37.4982 175.719 37.7204L179.203 42.4626ZM185.591 37.3204C185.591 36.9759 185.541 36.662 185.441 36.3786C185.346 36.0897 185.205 35.8424 185.016 35.6368C184.832 35.4257 184.607 35.2646 184.341 35.1534C184.074 35.0368 183.771 34.9784 183.432 34.9784C182.721 34.9784 182.157 35.1868 181.74 35.6035C181.329 36.0147 181.074 36.5869 180.974 37.3204H185.591ZM186.791 41.2792C186.608 41.5014 186.388 41.6959 186.132 41.8626C185.877 42.0237 185.602 42.1571 185.307 42.2626C185.018 42.3682 184.718 42.446 184.407 42.496C184.096 42.5515 183.788 42.5793 183.482 42.5793C182.899 42.5793 182.36 42.4821 181.865 42.2876C181.376 42.0876 180.951 41.7987 180.59 41.4209C180.235 41.0375 179.957 40.5652 179.757 40.004C179.557 39.4428 179.457 38.7983 179.457 38.0705C179.457 37.4815 179.546 36.9314 179.723 36.4203C179.907 35.9091 180.168 35.4674 180.507 35.0951C180.846 34.7173 181.26 34.4228 181.749 34.2117C182.238 33.995 182.788 33.8866 183.399 33.8866C183.904 33.8866 184.371 33.9727 184.799 34.145C185.232 34.3117 185.605 34.5561 185.916 34.8784C186.232 35.1951 186.48 35.5896 186.658 36.0619C186.835 36.5286 186.924 37.062 186.924 37.6621C186.924 37.8954 186.899 38.051 186.849 38.1288C186.799 38.2066 186.705 38.2455 186.566 38.2455H180.923C180.94 38.7789 181.012 39.2428 181.14 39.6373C181.274 40.0318 181.457 40.3624 181.69 40.6291C181.924 40.8902 182.201 41.0875 182.524 41.2208C182.846 41.3486 183.207 41.4125 183.607 41.4125C183.979 41.4125 184.299 41.3708 184.566 41.2875C184.838 41.1986 185.071 41.1042 185.266 41.0041C185.46 40.9041 185.621 40.8124 185.749 40.7291C185.882 40.6402 185.996 40.5958 186.091 40.5958C186.213 40.5958 186.307 40.643 186.374 40.7374L186.791 41.2792ZM194.247 36.0202C193.98 35.6646 193.683 35.4118 193.355 35.2618C193.028 35.1062 192.664 35.0284 192.264 35.0284C191.48 35.0284 190.877 35.309 190.455 35.8702C190.033 36.4314 189.822 37.2315 189.822 38.2705C189.822 38.8205 189.869 39.2928 189.963 39.6873C190.058 40.0763 190.197 40.3985 190.38 40.6541C190.563 40.9041 190.788 41.0875 191.055 41.2042C191.322 41.3208 191.625 41.3792 191.963 41.3792C192.452 41.3792 192.877 41.2681 193.239 41.0458C193.605 40.8236 193.942 40.5096 194.247 40.104V36.0202ZM195.731 34.02V45.3213H194.247V41.2042C193.897 41.6153 193.494 41.9487 193.039 42.2043C192.583 42.4543 192.064 42.5793 191.48 42.5793C190.997 42.5793 190.558 42.4876 190.163 42.3043C189.769 42.1154 189.433 41.8403 189.155 41.4792C188.877 41.118 188.663 40.668 188.513 40.129C188.363 39.5901 188.288 38.9706 188.288 38.2705C188.288 37.6482 188.371 37.0703 188.538 36.5369C188.705 35.998 188.944 35.5313 189.255 35.1368C189.566 34.7423 189.947 34.4339 190.397 34.2117C190.852 33.9839 191.363 33.87 191.93 33.87C192.48 33.87 192.947 33.9672 193.33 34.1617C193.714 34.3561 194.053 34.6284 194.347 34.9784L194.447 34.3283C194.503 34.1228 194.636 34.02 194.847 34.02H195.731ZM205.016 34.02V42.4626H204.133C203.922 42.4626 203.788 42.3599 203.733 42.1543L203.616 41.2458C203.249 41.6514 202.838 41.9793 202.383 42.2293C201.927 42.4738 201.405 42.596 200.816 42.596C200.355 42.596 199.946 42.521 199.591 42.371C199.241 42.2154 198.946 41.9987 198.707 41.7209C198.468 41.4431 198.288 41.1069 198.165 40.7124C198.049 40.3179 197.99 39.8818 197.99 39.4039V34.02H199.474V39.4039C199.474 40.0429 199.618 40.5374 199.907 40.8875C200.202 41.2375 200.649 41.4125 201.249 41.4125C201.688 41.4125 202.096 41.3097 202.474 41.1042C202.858 40.893 203.21 40.6041 203.533 40.2374V34.02H205.016ZM213.019 37.3204C213.019 36.9759 212.969 36.662 212.869 36.3786C212.775 36.0897 212.633 35.8424 212.444 35.6368C212.261 35.4257 212.036 35.2646 211.769 35.1534C211.502 35.0368 211.199 34.9784 210.861 34.9784C210.149 34.9784 209.585 35.1868 209.169 35.6035C208.758 36.0147 208.502 36.5869 208.402 37.3204H213.019ZM214.219 41.2792C214.036 41.5014 213.816 41.6959 213.561 41.8626C213.305 42.0237 213.03 42.1571 212.736 42.2626C212.447 42.3682 212.147 42.446 211.836 42.496C211.525 42.5515 211.216 42.5793 210.911 42.5793C210.327 42.5793 209.788 42.4821 209.294 42.2876C208.805 42.0876 208.38 41.7987 208.019 41.4209C207.663 41.0375 207.385 40.5652 207.185 40.004C206.985 39.4428 206.885 38.7983 206.885 38.0705C206.885 37.4815 206.974 36.9314 207.152 36.4203C207.335 35.9091 207.596 35.4674 207.935 35.0951C208.274 34.7173 208.688 34.4228 209.177 34.2117C209.666 33.995 210.216 33.8866 210.827 33.8866C211.333 33.8866 211.8 33.9727 212.227 34.145C212.661 34.3117 213.033 34.5561 213.344 34.8784C213.661 35.1951 213.908 35.5896 214.086 36.0619C214.264 36.5286 214.353 37.062 214.353 37.6621C214.353 37.8954 214.328 38.051 214.278 38.1288C214.228 38.2066 214.133 38.2455 213.994 38.2455H208.352C208.369 38.7789 208.441 39.2428 208.569 39.6373C208.702 40.0318 208.885 40.3624 209.119 40.6291C209.352 40.8902 209.63 41.0875 209.952 41.2208C210.274 41.3486 210.636 41.4125 211.036 41.4125C211.408 41.4125 211.727 41.3708 211.994 41.2875C212.266 41.1986 212.5 41.1042 212.694 41.0041C212.889 40.9041 213.05 40.8124 213.177 40.7291C213.311 40.6402 213.425 40.5958 213.519 40.5958C213.641 40.5958 213.736 40.643 213.803 40.7374L214.219 41.2792ZM221.092 35.4118C221.025 35.534 220.923 35.5952 220.784 35.5952C220.7 35.5952 220.606 35.5646 220.5 35.5035C220.395 35.4424 220.264 35.3757 220.109 35.3035C219.959 35.2257 219.778 35.1562 219.567 35.0951C219.356 35.0284 219.106 34.9951 218.817 34.9951C218.567 34.9951 218.342 35.0284 218.142 35.0951C217.942 35.1562 217.769 35.2423 217.625 35.3535C217.486 35.4646 217.378 35.5952 217.3 35.7452C217.228 35.8896 217.192 36.048 217.192 36.2202C217.192 36.4369 217.253 36.6175 217.375 36.762C217.503 36.9064 217.669 37.0314 217.875 37.137C218.081 37.2426 218.314 37.337 218.575 37.4204C218.836 37.4982 219.103 37.5843 219.375 37.6787C219.653 37.7676 219.923 37.8677 220.184 37.9788C220.445 38.0899 220.678 38.2288 220.884 38.3955C221.089 38.5622 221.253 38.7678 221.375 39.0122C221.503 39.2512 221.567 39.5401 221.567 39.879C221.567 40.2679 221.498 40.6291 221.359 40.9625C221.22 41.2903 221.014 41.5764 220.742 41.8209C220.47 42.0598 220.136 42.2487 219.742 42.3876C219.347 42.5265 218.892 42.596 218.375 42.596C217.786 42.596 217.253 42.5015 216.775 42.3126C216.297 42.1182 215.891 41.8709 215.558 41.5709L215.908 41.0041C215.953 40.9319 216.005 40.8763 216.067 40.8375C216.128 40.7986 216.205 40.7791 216.3 40.7791C216.4 40.7791 216.505 40.818 216.617 40.8958C216.728 40.9736 216.861 41.0597 217.017 41.1542C217.178 41.2486 217.372 41.3347 217.6 41.4125C217.828 41.4903 218.111 41.5292 218.45 41.5292C218.739 41.5292 218.992 41.4931 219.209 41.4209C219.425 41.3431 219.606 41.2403 219.75 41.1125C219.895 40.9847 220 40.8375 220.067 40.6708C220.139 40.5041 220.175 40.3263 220.175 40.1374C220.175 39.904 220.111 39.7123 219.984 39.5623C219.861 39.4067 219.697 39.2762 219.492 39.1706C219.286 39.0595 219.05 38.965 218.783 38.8872C218.522 38.8039 218.253 38.7178 217.975 38.6289C217.703 38.54 217.433 38.4399 217.167 38.3288C216.905 38.2121 216.672 38.0677 216.467 37.8954C216.261 37.7232 216.094 37.5121 215.966 37.262C215.844 37.0064 215.783 36.6981 215.783 36.3369C215.783 36.0147 215.85 35.7063 215.983 35.4118C216.117 35.1118 216.311 34.8506 216.567 34.6284C216.822 34.4006 217.136 34.22 217.508 34.0866C217.881 33.9533 218.306 33.8866 218.783 33.8866C219.339 33.8866 219.836 33.9755 220.275 34.1533C220.72 34.3256 221.103 34.5645 221.425 34.8701L221.092 35.4118ZM225.978 42.596C225.311 42.596 224.797 42.4099 224.436 42.0376C224.081 41.6653 223.903 41.1292 223.903 40.4291V35.2618H222.886C222.797 35.2618 222.722 35.2368 222.661 35.1868C222.6 35.1312 222.569 35.0479 222.569 34.9367V34.345L223.953 34.17L224.294 31.5613C224.311 31.478 224.347 31.4113 224.403 31.3613C224.464 31.3058 224.542 31.278 224.636 31.278H225.386V34.1867H227.828V35.2618H225.386V40.3291C225.386 40.6847 225.472 40.9486 225.645 41.1208C225.817 41.2931 226.039 41.3792 226.311 41.3792C226.467 41.3792 226.6 41.3597 226.711 41.3208C226.828 41.2764 226.928 41.2292 227.011 41.1792C227.095 41.1292 227.164 41.0847 227.22 41.0458C227.281 41.0014 227.334 40.9791 227.378 40.9791C227.456 40.9791 227.525 41.0264 227.587 41.1208L228.02 41.8292C227.764 42.0682 227.456 42.2571 227.095 42.396C226.734 42.5293 226.361 42.596 225.978 42.596ZM234.277 35.4118C234.211 35.534 234.108 35.5952 233.969 35.5952C233.886 35.5952 233.791 35.5646 233.686 35.5035C233.58 35.4424 233.449 35.3757 233.294 35.3035C233.144 35.2257 232.963 35.1562 232.752 35.0951C232.541 35.0284 232.291 34.9951 232.002 34.9951C231.752 34.9951 231.527 35.0284 231.327 35.0951C231.127 35.1562 230.955 35.2423 230.81 35.3535C230.671 35.4646 230.563 35.5952 230.485 35.7452C230.413 35.8896 230.377 36.048 230.377 36.2202C230.377 36.4369 230.438 36.6175 230.56 36.762C230.688 36.9064 230.855 37.0314 231.06 37.137C231.266 37.2426 231.499 37.337 231.76 37.4204C232.021 37.4982 232.288 37.5843 232.56 37.6787C232.838 37.7676 233.108 37.8677 233.369 37.9788C233.63 38.0899 233.863 38.2288 234.069 38.3955C234.274 38.5622 234.438 38.7678 234.561 39.0122C234.688 39.2512 234.752 39.5401 234.752 39.879C234.752 40.2679 234.683 40.6291 234.544 40.9625C234.405 41.2903 234.199 41.5764 233.927 41.8209C233.655 42.0598 233.322 42.2487 232.927 42.3876C232.533 42.5265 232.077 42.596 231.56 42.596C230.971 42.596 230.438 42.5015 229.96 42.3126C229.482 42.1182 229.077 41.8709 228.743 41.5709L229.093 41.0041C229.138 40.9319 229.191 40.8763 229.252 40.8375C229.313 40.7986 229.391 40.7791 229.485 40.7791C229.585 40.7791 229.691 40.818 229.802 40.8958C229.913 40.9736 230.046 41.0597 230.202 41.1542C230.363 41.2486 230.557 41.3347 230.785 41.4125C231.013 41.4903 231.296 41.5292 231.635 41.5292C231.924 41.5292 232.177 41.4931 232.394 41.4209C232.61 41.3431 232.791 41.2403 232.935 41.1125C233.08 40.9847 233.185 40.8375 233.252 40.6708C233.324 40.5041 233.36 40.3263 233.36 40.1374C233.36 39.904 233.297 39.7123 233.169 39.5623C233.047 39.4067 232.883 39.2762 232.677 39.1706C232.471 39.0595 232.235 38.965 231.969 38.8872C231.708 38.8039 231.438 38.7178 231.16 38.6289C230.888 38.54 230.618 38.4399 230.352 38.3288C230.091 38.2121 229.857 38.0677 229.652 37.8954C229.446 37.7232 229.279 37.5121 229.152 37.262C229.029 37.0064 228.968 36.6981 228.968 36.3369C228.968 36.0147 229.035 35.7063 229.168 35.4118C229.302 35.1118 229.496 34.8506 229.752 34.6284C230.007 34.4006 230.321 34.22 230.694 34.0866C231.066 33.9533 231.491 33.8866 231.969 33.8866C232.524 33.8866 233.022 33.9755 233.461 34.1533C233.905 34.3256 234.288 34.5645 234.611 34.8701L234.277 35.4118Z" fill="#1E1E1E"/>
<rect x="286.493" y="20.8357" width="31.2537" height="31.2537" rx="15.6269" fill="#F9F9F9"/>
<path d="M309.933 36.4626H309.946M302.119 36.4626H302.132M294.306 36.4626H294.319M303.422 36.4626C303.422 37.1818 302.839 37.7649 302.119 37.7649C301.4 37.7649 300.817 37.1818 300.817 36.4626C300.817 35.7434 301.4 35.1604 302.119 35.1604C302.839 35.1604 303.422 35.7434 303.422 36.4626ZM311.235 36.4626C311.235 37.1818 310.652 37.7649 309.933 37.7649C309.214 37.7649 308.631 37.1818 308.631 36.4626C308.631 35.7434 309.214 35.1604 309.933 35.1604C310.652 35.1604 311.235 35.7434 311.235 36.4626ZM295.608 36.4626C295.608 37.1818 295.025 37.7649 294.306 37.7649C293.587 37.7649 293.004 37.1818 293.004 36.4626C293.004 35.7434 293.587 35.1604 294.306 35.1604C295.025 35.1604 295.608 35.7434 295.608 36.4626Z" stroke="#949694" stroke-width="2.08358" stroke-linecap="round" stroke-linejoin="round"/>
<g opacity="0.16">
<rect x="72.9254" y="133.349" width="61" height="31" rx="15.5" transform="rotate(-90 72.9254 133.349)" fill="#51C76A"/>
</g>
<path d="M92.7258 107.515C92.7258 107.354 92.773 107.227 92.8675 107.132C92.9619 107.038 93.0842 106.99 93.2342 106.99H94.1343V114.958H93.6259C93.5203 114.958 93.412 114.936 93.3008 114.891C93.1897 114.847 93.0869 114.777 92.9925 114.683L89.1503 110.858C88.8281 110.541 88.5197 110.252 88.2252 109.991C87.9252 109.73 87.6252 109.507 87.3251 109.324C87.0251 109.141 86.7223 108.999 86.4167 108.899C86.1055 108.799 85.7749 108.749 85.4249 108.749C85.0749 108.749 84.7693 108.805 84.5081 108.916C84.2414 109.027 84.022 109.18 83.8497 109.374C83.6775 109.563 83.5497 109.788 83.4663 110.049C83.3774 110.31 83.333 110.591 83.333 110.891C83.333 111.196 83.3774 111.477 83.4663 111.733C83.5552 111.988 83.6802 112.216 83.8414 112.416C83.997 112.611 84.1831 112.774 84.3998 112.908C84.6165 113.041 84.8554 113.136 85.1165 113.191C85.311 113.258 85.4416 113.35 85.5082 113.466C85.5694 113.577 85.586 113.736 85.5583 113.941L85.4249 114.716C84.8804 114.639 84.3998 114.489 83.9831 114.266C83.5608 114.038 83.208 113.755 82.9246 113.416C82.6412 113.072 82.4273 112.68 82.2829 112.241C82.1328 111.802 82.0578 111.327 82.0578 110.816C82.0578 110.31 82.1328 109.838 82.2829 109.399C82.4329 108.96 82.6523 108.579 82.9413 108.257C83.2246 107.935 83.5719 107.682 83.9831 107.499C84.3942 107.315 84.8609 107.224 85.3832 107.224C85.8277 107.224 86.2417 107.29 86.625 107.424C87.0029 107.557 87.364 107.738 87.7085 107.966C88.053 108.193 88.3891 108.457 88.717 108.757C89.0448 109.052 89.3754 109.366 89.7087 109.699L92.9258 112.849C92.8647 112.627 92.8175 112.402 92.7841 112.174C92.7452 111.947 92.7258 111.727 92.7258 111.516V107.515ZM93.0008 97.588H94.1343V103.989H93.0008V101.43H84.8582C84.6137 101.43 84.3664 101.422 84.1164 101.405L85.9416 103.53C86.0027 103.603 86.0416 103.675 86.0583 103.747C86.0694 103.819 86.0694 103.886 86.0583 103.947C86.0472 104.008 86.025 104.067 85.9916 104.122C85.9583 104.172 85.9222 104.211 85.8833 104.239L85.2415 104.706L82.1662 101.147V99.9383H93.0008V97.588Z" fill="#017219"/>
<g opacity="0.16">
<rect x="130.224" y="133.349" width="57" height="31" rx="15.5" transform="rotate(-90 130.224 133.349)" fill="#E7BF1E"/>
</g>
<path d="M150.299 107.257H151.433V113.658H150.299V111.099H142.157C141.912 111.099 141.665 111.091 141.415 111.074L143.24 113.199C143.301 113.272 143.34 113.344 143.357 113.416C143.368 113.488 143.368 113.555 143.357 113.616C143.346 113.677 143.324 113.736 143.29 113.791C143.257 113.841 143.221 113.88 143.182 113.908L142.54 114.375L139.465 110.816V109.607H150.299V107.257ZM142.999 103.714C143.376 103.714 143.715 103.661 144.015 103.555C144.31 103.444 144.56 103.289 144.765 103.089C144.971 102.883 145.127 102.636 145.232 102.347C145.338 102.052 145.39 101.725 145.39 101.363C145.39 100.963 145.327 100.611 145.199 100.305C145.065 99.9938 144.89 99.7327 144.674 99.5215C144.457 99.3104 144.207 99.1493 143.924 99.0382C143.64 98.927 143.346 98.8715 143.04 98.8715C142.668 98.8715 142.332 98.9326 142.032 99.0548C141.726 99.1715 141.468 99.3354 141.257 99.5465C141.046 99.7577 140.884 100.01 140.773 100.305C140.657 100.594 140.598 100.913 140.598 101.263C140.598 101.63 140.659 101.964 140.782 102.264C140.898 102.564 141.062 102.822 141.273 103.039C141.484 103.255 141.737 103.422 142.032 103.539C142.326 103.655 142.648 103.714 142.999 103.714ZM146.674 100.247C146.513 100.124 146.36 100.01 146.216 99.9049C146.071 99.7994 145.927 99.6993 145.782 99.6049C146.027 99.9105 146.213 100.255 146.341 100.638C146.468 101.022 146.532 101.427 146.532 101.855C146.532 102.305 146.457 102.733 146.307 103.139C146.157 103.539 145.938 103.892 145.649 104.197C145.354 104.503 144.996 104.747 144.574 104.931C144.146 105.108 143.657 105.197 143.107 105.197C142.585 105.197 142.096 105.1 141.64 104.906C141.184 104.711 140.787 104.439 140.448 104.089C140.109 103.739 139.843 103.322 139.648 102.839C139.454 102.355 139.356 101.825 139.356 101.247C139.356 100.674 139.451 100.155 139.64 99.6882C139.829 99.2215 140.093 98.8215 140.432 98.4881C140.77 98.1547 141.176 97.8991 141.648 97.7213C142.121 97.538 142.643 97.4463 143.215 97.4463C143.56 97.4463 143.888 97.4796 144.199 97.5463C144.504 97.6074 144.807 97.6991 145.107 97.8213C145.402 97.938 145.696 98.0825 145.991 98.2547C146.279 98.427 146.577 98.6214 146.882 98.8381L151.083 101.747C151.188 101.819 151.275 101.922 151.341 102.055C151.402 102.189 151.433 102.341 151.433 102.514V103.88L146.674 100.247Z" fill="#E7BF1E"/>
<g opacity="0.16">
<rect x="187.522" y="133.349" width="71" height="31" rx="15.5" transform="rotate(-90 187.522 133.349)" fill="#6E706F"/>
</g>
<path d="M200.022 114.658C199.478 114.58 198.997 114.43 198.58 114.208C198.158 113.986 197.805 113.705 197.522 113.366C197.239 113.022 197.025 112.63 196.88 112.191C196.73 111.747 196.655 111.269 196.655 110.758C196.655 110.252 196.727 109.785 196.872 109.357C197.016 108.93 197.222 108.563 197.489 108.257C197.755 107.946 198.078 107.704 198.455 107.532C198.833 107.36 199.253 107.274 199.714 107.274C200.092 107.274 200.431 107.324 200.731 107.424C201.025 107.518 201.283 107.657 201.506 107.841C201.728 108.018 201.917 108.235 202.072 108.491C202.228 108.746 202.356 109.032 202.456 109.349C202.656 108.571 203 107.988 203.489 107.599C203.973 107.204 204.578 107.007 205.306 107.007C205.856 107.007 206.351 107.113 206.79 107.324C207.229 107.529 207.604 107.813 207.915 108.174C208.22 108.535 208.457 108.957 208.623 109.441C208.784 109.919 208.865 110.432 208.865 110.983C208.865 111.616 208.787 112.158 208.632 112.608C208.47 113.058 208.251 113.438 207.973 113.75C207.695 114.061 207.368 114.316 206.99 114.516C206.606 114.716 206.192 114.886 205.748 115.025L205.481 114.383C205.409 114.216 205.39 114.055 205.423 113.9C205.456 113.738 205.548 113.622 205.698 113.55C205.853 113.477 206.04 113.388 206.256 113.283C206.473 113.172 206.681 113.022 206.881 112.833C207.081 112.644 207.251 112.405 207.39 112.116C207.529 111.822 207.598 111.449 207.598 110.999C207.598 110.583 207.531 110.219 207.398 109.907C207.259 109.591 207.081 109.33 206.865 109.124C206.648 108.913 206.406 108.755 206.14 108.649C205.873 108.543 205.609 108.491 205.348 108.491C205.026 108.491 204.731 108.532 204.464 108.616C204.198 108.699 203.967 108.855 203.773 109.082C203.578 109.31 203.425 109.624 203.314 110.024C203.203 110.419 203.148 110.927 203.148 111.549H202.072C202.067 111.038 202.011 110.605 201.906 110.249C201.8 109.888 201.656 109.596 201.472 109.374C201.289 109.146 201.07 108.982 200.814 108.882C200.558 108.777 200.275 108.724 199.964 108.724C199.619 108.724 199.319 108.78 199.064 108.891C198.808 108.996 198.597 109.143 198.43 109.332C198.264 109.521 198.139 109.746 198.055 110.007C197.972 110.263 197.93 110.541 197.93 110.841C197.93 111.141 197.975 111.421 198.064 111.683C198.153 111.938 198.278 112.166 198.439 112.366C198.594 112.561 198.78 112.724 198.997 112.858C199.214 112.991 199.453 113.086 199.714 113.141C199.908 113.213 200.039 113.305 200.106 113.416C200.167 113.522 200.183 113.677 200.156 113.883L200.022 114.658ZM201.297 103.055C201.164 102.433 201.097 101.861 201.097 101.338C201.097 100.716 201.189 100.166 201.372 99.6882C201.556 99.2104 201.809 98.8131 202.131 98.4964C202.453 98.1742 202.834 97.9325 203.273 97.7713C203.712 97.6047 204.189 97.5213 204.706 97.5213C205.339 97.5213 205.912 97.6324 206.423 97.8547C206.934 98.0714 207.373 98.3742 207.74 98.7631C208.101 99.1465 208.379 99.5993 208.573 100.122C208.768 100.644 208.865 101.208 208.865 101.813C208.865 102.164 208.829 102.5 208.757 102.822C208.69 103.144 208.598 103.447 208.482 103.73C208.365 104.008 208.232 104.267 208.081 104.505C207.931 104.744 207.773 104.956 207.606 105.139L206.973 104.68C206.829 104.58 206.756 104.45 206.756 104.289C206.756 104.178 206.801 104.053 206.89 103.914C206.973 103.775 207.067 103.605 207.173 103.405C207.279 103.205 207.376 102.972 207.465 102.705C207.548 102.433 207.59 102.111 207.59 101.738C207.59 101.322 207.523 100.947 207.39 100.613C207.256 100.28 207.067 99.9938 206.823 99.7549C206.573 99.516 206.276 99.3326 205.931 99.2048C205.587 99.077 205.201 99.0132 204.773 99.0132C204.4 99.0132 204.064 99.0687 203.764 99.1798C203.464 99.2854 203.209 99.4493 202.998 99.6716C202.786 99.8883 202.623 100.161 202.506 100.488C202.389 100.816 202.331 101.2 202.331 101.638C202.331 101.939 202.356 102.252 202.406 102.58C202.456 102.903 202.536 103.233 202.648 103.572L202.372 104.505L196.788 103.547V97.888H197.439C197.65 97.888 197.825 97.9547 197.964 98.088C198.097 98.2158 198.164 98.4381 198.164 98.7548V102.505L201.297 103.055Z" fill="#1E1E1E"/>
<g opacity="0.16">
<rect x="244.821" y="133.349" width="65" height="31" rx="15.5" transform="rotate(-90 244.821 133.349)" fill="#C33E3E"/>
</g>
<path d="M264.621 107.515C264.621 107.354 264.669 107.227 264.763 107.132C264.858 107.038 264.98 106.99 265.13 106.99H266.03V114.958H265.522C265.416 114.958 265.308 114.936 265.196 114.891C265.085 114.847 264.983 114.777 264.888 114.683L261.046 110.858C260.724 110.541 260.415 110.252 260.121 109.991C259.821 109.73 259.521 109.507 259.221 109.324C258.921 109.141 258.618 108.999 258.312 108.899C258.001 108.799 257.671 108.749 257.321 108.749C256.97 108.749 256.665 108.805 256.404 108.916C256.137 109.027 255.918 109.18 255.745 109.374C255.573 109.563 255.445 109.788 255.362 110.049C255.273 110.31 255.229 110.591 255.229 110.891C255.229 111.196 255.273 111.477 255.362 111.733C255.451 111.988 255.576 112.216 255.737 112.416C255.893 112.611 256.079 112.774 256.295 112.908C256.512 113.041 256.751 113.136 257.012 113.191C257.207 113.258 257.337 113.35 257.404 113.466C257.465 113.577 257.482 113.736 257.454 113.941L257.321 114.716C256.776 114.639 256.295 114.489 255.879 114.266C255.456 114.038 255.104 113.755 254.82 113.416C254.537 113.072 254.323 112.68 254.178 112.241C254.028 111.802 253.953 111.327 253.953 110.816C253.953 110.31 254.028 109.838 254.178 109.399C254.329 108.96 254.548 108.579 254.837 108.257C255.12 107.935 255.468 107.682 255.879 107.499C256.29 107.315 256.757 107.224 257.279 107.224C257.723 107.224 258.137 107.29 258.521 107.424C258.898 107.557 259.26 107.738 259.604 107.966C259.949 108.193 260.285 108.457 260.613 108.757C260.94 109.052 261.271 109.366 261.604 109.699L264.821 112.849C264.76 112.627 264.713 112.402 264.68 112.174C264.641 111.947 264.621 111.727 264.621 111.516V107.515ZM257.321 104.989C256.776 104.911 256.295 104.761 255.879 104.539C255.456 104.317 255.104 104.036 254.82 103.697C254.537 103.353 254.323 102.961 254.178 102.522C254.028 102.077 253.953 101.6 253.953 101.088C253.953 100.583 254.026 100.116 254.17 99.6882C254.315 99.2604 254.52 98.8937 254.787 98.5881C255.054 98.277 255.376 98.0353 255.754 97.863C256.132 97.6908 256.551 97.6047 257.012 97.6047C257.39 97.6047 257.729 97.6547 258.029 97.7547C258.323 97.8491 258.582 97.988 258.804 98.1714C259.026 98.3492 259.215 98.5659 259.371 98.8215C259.526 99.077 259.654 99.3632 259.754 99.6799C259.954 98.902 260.299 98.3186 260.788 97.9297C261.271 97.5352 261.877 97.338 262.604 97.338C263.155 97.338 263.649 97.4435 264.088 97.6547C264.527 97.8602 264.902 98.1436 265.213 98.5048C265.519 98.8659 265.755 99.2882 265.922 99.7716C266.083 100.249 266.163 100.763 266.163 101.313C266.163 101.947 266.085 102.489 265.93 102.939C265.769 103.389 265.549 103.769 265.271 104.08C264.994 104.392 264.666 104.647 264.288 104.847C263.905 105.047 263.491 105.217 263.046 105.356L262.78 104.714C262.707 104.547 262.688 104.386 262.721 104.23C262.755 104.069 262.846 103.953 262.996 103.88C263.152 103.808 263.338 103.719 263.555 103.614C263.771 103.503 263.98 103.353 264.18 103.164C264.38 102.975 264.549 102.736 264.688 102.447C264.827 102.152 264.896 101.78 264.896 101.33C264.896 100.913 264.83 100.549 264.696 100.238C264.558 99.9216 264.38 99.6605 264.163 99.4549C263.946 99.2437 263.705 99.0854 263.438 98.9798C263.171 98.8742 262.907 98.8215 262.646 98.8215C262.324 98.8215 262.029 98.8631 261.763 98.9465C261.496 99.0298 261.265 99.1854 261.071 99.4132C260.877 99.641 260.724 99.9549 260.613 100.355C260.501 100.749 260.446 101.258 260.446 101.88H259.371C259.365 101.369 259.31 100.936 259.204 100.58C259.099 100.219 258.954 99.9272 258.771 99.7049C258.587 99.4771 258.368 99.3132 258.112 99.2132C257.857 99.1076 257.573 99.0548 257.262 99.0548C256.918 99.0548 256.618 99.1104 256.362 99.2215C256.106 99.3271 255.895 99.4743 255.729 99.6632C255.562 99.8521 255.437 100.077 255.354 100.338C255.27 100.594 255.229 100.872 255.229 101.172C255.229 101.472 255.273 101.752 255.362 102.014C255.451 102.269 255.576 102.497 255.737 102.697C255.893 102.891 256.079 103.055 256.295 103.189C256.512 103.322 256.751 103.416 257.012 103.472C257.207 103.544 257.337 103.636 257.404 103.747C257.465 103.853 257.482 104.008 257.454 104.214L257.321 104.989Z" fill="#C33E3E"/>
<circle cx="4.16716" cy="4.16716" r="4.16716" transform="matrix(1 0 0 -1 57.8193 152.101)" fill="#017219"/>
<path d="M34.6375 169.916L34.6323 170.739H30.0328V163.275H34.6323V164.098H31.0434V166.577H33.95V167.369H31.0434V169.916H34.6375ZM36.7343 163.066V170.739H35.8071V163.066H36.7343ZM41.7696 167.525C41.7696 167.31 41.7383 167.114 41.6758 166.937C41.6168 166.756 41.5282 166.602 41.4102 166.473C41.2956 166.341 41.1549 166.24 40.9882 166.171C40.8215 166.098 40.6323 166.062 40.4205 166.062C39.976 166.062 39.6235 166.192 39.363 166.452C39.1061 166.709 38.9463 167.067 38.8838 167.525H41.7696ZM42.5197 170C42.4051 170.138 42.2679 170.26 42.1082 170.364C41.9484 170.465 41.7765 170.548 41.5925 170.614C41.4119 170.68 41.2244 170.729 41.0299 170.76C40.8354 170.795 40.6427 170.812 40.4517 170.812C40.0871 170.812 39.7502 170.751 39.4412 170.63C39.1356 170.505 38.8699 170.324 38.6442 170.088C38.422 169.849 38.2483 169.553 38.1233 169.203C37.9983 168.852 37.9358 168.449 37.9358 167.994C37.9358 167.626 37.9913 167.282 38.1025 166.963C38.2171 166.643 38.3803 166.367 38.5921 166.135C38.8039 165.898 39.0627 165.714 39.3682 165.582C39.6738 165.447 40.0176 165.379 40.3996 165.379C40.7156 165.379 41.0073 165.433 41.2747 165.541C41.5456 165.645 41.7783 165.798 41.9727 165.999C42.1707 166.197 42.3252 166.444 42.4363 166.739C42.5474 167.03 42.603 167.364 42.603 167.739C42.603 167.885 42.5874 167.982 42.5561 168.031C42.5249 168.079 42.4658 168.104 42.379 168.104H38.8526C38.863 168.437 38.9081 168.727 38.988 168.973C39.0713 169.22 39.1859 169.427 39.3318 169.593C39.4776 169.757 39.6513 169.88 39.8527 169.963C40.0541 170.043 40.2798 170.083 40.5298 170.083C40.7625 170.083 40.9622 170.057 41.1289 170.005C41.299 169.949 41.4449 169.89 41.5664 169.828C41.688 169.765 41.7887 169.708 41.8685 169.656C41.9519 169.6 42.0231 169.572 42.0821 169.572C42.1585 169.572 42.2175 169.602 42.2592 169.661L42.5197 170ZM47.4142 166.4C47.3864 166.438 47.3586 166.468 47.3309 166.489C47.3031 166.51 47.2649 166.52 47.2163 166.52C47.1642 166.52 47.1069 166.499 47.0444 166.457C46.9819 166.412 46.9037 166.364 46.81 166.312C46.7197 166.26 46.6068 166.213 46.4714 166.171C46.3394 166.126 46.1762 166.103 45.9817 166.103C45.7213 166.103 45.4921 166.15 45.2942 166.244C45.0962 166.334 44.9295 166.466 44.7941 166.64C44.6621 166.813 44.5614 167.024 44.492 167.27C44.426 167.517 44.393 167.793 44.393 168.098C44.393 168.418 44.4295 168.703 44.5024 168.953C44.5753 169.199 44.6778 169.408 44.8097 169.578C44.9452 169.744 45.1066 169.873 45.2942 169.963C45.4852 170.05 45.6987 170.093 45.9349 170.093C46.1606 170.093 46.3464 170.067 46.4922 170.015C46.6381 169.96 46.7579 169.899 46.8516 169.833C46.9489 169.767 47.0287 169.708 47.0913 169.656C47.1572 169.6 47.2215 169.572 47.284 169.572C47.3604 169.572 47.4194 169.602 47.4611 169.661L47.7215 170C47.6069 170.142 47.4767 170.264 47.3309 170.364C47.185 170.465 47.027 170.55 46.8569 170.619C46.6902 170.685 46.5148 170.734 46.3307 170.765C46.1467 170.797 45.9592 170.812 45.7682 170.812C45.4383 170.812 45.131 170.751 44.8462 170.63C44.5649 170.508 44.3201 170.333 44.1117 170.104C43.9034 169.871 43.7402 169.586 43.6221 169.249C43.504 168.913 43.445 168.529 43.445 168.098C43.445 167.706 43.4988 167.343 43.6065 167.01C43.7176 166.676 43.8773 166.39 44.0857 166.15C44.2975 165.907 44.5562 165.718 44.8618 165.582C45.1709 165.447 45.5251 165.379 45.9245 165.379C46.296 165.379 46.6225 165.44 46.9037 165.562C47.1885 165.68 47.4403 165.848 47.659 166.067L47.4142 166.4ZM50.3368 170.823C49.9201 170.823 49.5989 170.706 49.3732 170.474C49.1509 170.241 49.0398 169.906 49.0398 169.468V166.239H48.4043C48.3488 166.239 48.3019 166.223 48.2637 166.192C48.2255 166.157 48.2064 166.105 48.2064 166.036V165.666L49.0711 165.556L49.2846 163.926C49.2951 163.874 49.3176 163.832 49.3524 163.801C49.3905 163.766 49.4392 163.749 49.4982 163.749H49.967V165.567H51.4932V166.239H49.967V169.406C49.967 169.628 50.0208 169.793 50.1285 169.901C50.2361 170.008 50.375 170.062 50.5452 170.062C50.6424 170.062 50.7258 170.05 50.7952 170.026C50.8682 169.998 50.9307 169.968 50.9828 169.937C51.0348 169.906 51.0783 169.878 51.113 169.854C51.1512 169.826 51.1842 169.812 51.2119 169.812C51.2606 169.812 51.304 169.842 51.3422 169.901L51.613 170.343C51.4533 170.493 51.2606 170.611 51.0348 170.698C50.8091 170.781 50.5765 170.823 50.3368 170.823ZM53.3309 166.52C53.4976 166.159 53.7025 165.878 53.9456 165.676C54.1887 165.471 54.4856 165.369 54.8363 165.369C54.9474 165.369 55.0534 165.381 55.1541 165.405C55.2582 165.43 55.3503 165.468 55.4301 165.52L55.3624 166.213C55.3416 166.299 55.2895 166.343 55.2062 166.343C55.1575 166.343 55.0864 166.332 54.9926 166.312C54.8988 166.291 54.7929 166.28 54.6748 166.28C54.5082 166.28 54.3588 166.305 54.2269 166.353C54.0984 166.402 53.9821 166.475 53.8779 166.572C53.7772 166.666 53.6851 166.784 53.6018 166.926C53.5219 167.065 53.449 167.225 53.383 167.406V170.739H52.4506V165.463H52.9819C53.0826 165.463 53.1521 165.482 53.1903 165.52C53.2285 165.558 53.2545 165.624 53.2684 165.718L53.3309 166.52ZM57.2247 165.463V170.739H56.2975V165.463H57.2247ZM57.4227 163.806C57.4227 163.896 57.4036 163.982 57.3654 164.061C57.3306 164.138 57.282 164.207 57.2195 164.27C57.1605 164.329 57.0893 164.376 57.0059 164.41C56.9261 164.445 56.841 164.462 56.7507 164.462C56.6604 164.462 56.5753 164.445 56.4955 164.41C56.4191 164.376 56.3513 164.329 56.2923 164.27C56.2333 164.207 56.1864 164.138 56.1517 164.061C56.1169 163.982 56.0996 163.896 56.0996 163.806C56.0996 163.716 56.1169 163.631 56.1517 163.551C56.1864 163.468 56.2333 163.396 56.2923 163.337C56.3513 163.275 56.4191 163.226 56.4955 163.191C56.5753 163.157 56.6604 163.139 56.7507 163.139C56.841 163.139 56.9261 163.157 57.0059 163.191C57.0893 163.226 57.1605 163.275 57.2195 163.337C57.282 163.396 57.3306 163.468 57.3654 163.551C57.4036 163.631 57.4227 163.716 57.4227 163.806ZM62.4205 166.4C62.3927 166.438 62.3649 166.468 62.3371 166.489C62.3094 166.51 62.2712 166.52 62.2225 166.52C62.1705 166.52 62.1132 166.499 62.0506 166.457C61.9881 166.412 61.91 166.364 61.8162 166.312C61.726 166.26 61.6131 166.213 61.4777 166.171C61.3457 166.126 61.1825 166.103 60.988 166.103C60.7276 166.103 60.4984 166.15 60.3004 166.244C60.1025 166.334 59.9358 166.466 59.8004 166.64C59.6684 166.813 59.5677 167.024 59.4983 167.27C59.4323 167.517 59.3993 167.793 59.3993 168.098C59.3993 168.418 59.4357 168.703 59.5087 168.953C59.5816 169.199 59.684 169.408 59.816 169.578C59.9514 169.744 60.1129 169.873 60.3004 169.963C60.4914 170.05 60.705 170.093 60.9411 170.093C61.1669 170.093 61.3526 170.067 61.4985 170.015C61.6443 169.96 61.7642 169.899 61.8579 169.833C61.9551 169.767 62.035 169.708 62.0975 169.656C62.1635 169.6 62.2277 169.572 62.2903 169.572C62.3667 169.572 62.4257 169.602 62.4674 169.661L62.7278 170C62.6132 170.142 62.483 170.264 62.3371 170.364C62.1913 170.465 62.0333 170.55 61.8631 170.619C61.6964 170.685 61.5211 170.734 61.337 170.765C61.153 170.797 60.9654 170.812 60.7745 170.812C60.4446 170.812 60.1372 170.751 59.8525 170.63C59.5712 170.508 59.3264 170.333 59.118 170.104C58.9096 169.871 58.7464 169.586 58.6284 169.249C58.5103 168.913 58.4513 168.529 58.4513 168.098C58.4513 167.706 58.5051 167.343 58.6127 167.01C58.7239 166.676 58.8836 166.39 59.092 166.15C59.3038 165.907 59.5625 165.718 59.8681 165.582C60.1772 165.447 60.5314 165.379 60.9307 165.379C61.3023 165.379 61.6287 165.44 61.91 165.562C62.1948 165.68 62.4465 165.848 62.6653 166.067L62.4205 166.4ZM66.5828 168.364C66.1557 168.378 65.7911 168.413 65.489 168.468C65.1903 168.52 64.9455 168.59 64.7545 168.677C64.567 168.763 64.4298 168.866 64.343 168.984C64.2596 169.102 64.218 169.234 64.218 169.38C64.218 169.519 64.2405 169.638 64.2857 169.739C64.3308 169.84 64.3916 169.923 64.468 169.989C64.5479 170.052 64.6399 170.099 64.7441 170.13C64.8517 170.158 64.9663 170.171 65.0879 170.171C65.2511 170.171 65.4004 170.156 65.5358 170.125C65.6713 170.09 65.798 170.041 65.9161 169.979C66.0376 169.916 66.1522 169.842 66.2599 169.755C66.371 169.668 66.4787 169.569 66.5828 169.458V168.364ZM63.5877 166.207C63.8794 165.926 64.1937 165.716 64.5305 165.577C64.8674 165.438 65.2407 165.369 65.6504 165.369C65.9456 165.369 66.2078 165.417 66.437 165.515C66.6662 165.612 66.8589 165.747 67.0152 165.921C67.1715 166.095 67.2895 166.305 67.3694 166.551C67.4493 166.798 67.4892 167.069 67.4892 167.364V170.739H67.0777C66.9874 170.739 66.918 170.725 66.8693 170.698C66.8207 170.666 66.7825 170.607 66.7547 170.52L66.6506 170.02C66.5117 170.149 66.3762 170.264 66.2443 170.364C66.1123 170.461 65.9734 170.545 65.8275 170.614C65.6817 170.68 65.5254 170.731 65.3587 170.765C65.1955 170.804 65.0132 170.823 64.8118 170.823C64.6069 170.823 64.4142 170.795 64.2336 170.739C64.053 170.68 63.895 170.593 63.7596 170.479C63.6276 170.364 63.5217 170.22 63.4418 170.046C63.3654 169.869 63.3272 169.661 63.3272 169.421C63.3272 169.213 63.3845 169.013 63.4991 168.822C63.6137 168.628 63.7995 168.456 64.0565 168.307C64.3135 168.157 64.6486 168.036 65.0618 167.942C65.4751 167.845 65.9821 167.789 66.5828 167.775V167.364C66.5828 166.954 66.4943 166.645 66.3172 166.437C66.1401 166.225 65.8814 166.119 65.5411 166.119C65.3119 166.119 65.1191 166.148 64.9629 166.207C64.8101 166.263 64.6764 166.327 64.5618 166.4C64.4506 166.47 64.3534 166.534 64.2701 166.593C64.1902 166.648 64.1103 166.676 64.0305 166.676C63.9679 166.676 63.9141 166.661 63.869 166.629C63.8238 166.595 63.7856 166.553 63.7544 166.504L63.5877 166.207ZM69.86 163.066V170.739H68.9328V163.066H69.86ZM80.2955 163.275V170.739H79.285V167.343H75.2584V170.739H74.2479V163.275H75.2584V166.603H79.285V163.275H80.2955ZM85.3539 167.525C85.3539 167.31 85.3226 167.114 85.2601 166.937C85.2011 166.756 85.1125 166.602 84.9945 166.473C84.8799 166.341 84.7392 166.24 84.5725 166.171C84.4059 166.098 84.2166 166.062 84.0048 166.062C83.5603 166.062 83.2078 166.192 82.9473 166.452C82.6904 166.709 82.5306 167.067 82.4681 167.525H85.3539ZM86.104 170C85.9894 170.138 85.8522 170.26 85.6925 170.364C85.5327 170.465 85.3608 170.548 85.1768 170.614C84.9962 170.68 84.8087 170.729 84.6142 170.76C84.4197 170.795 84.227 170.812 84.036 170.812C83.6714 170.812 83.3345 170.751 83.0255 170.63C82.7199 170.505 82.4542 170.324 82.2285 170.088C82.0063 169.849 81.8326 169.553 81.7076 169.203C81.5826 168.852 81.5201 168.449 81.5201 167.994C81.5201 167.626 81.5757 167.282 81.6868 166.963C81.8014 166.643 81.9646 166.367 82.1764 166.135C82.3883 165.898 82.647 165.714 82.9526 165.582C83.2581 165.447 83.6019 165.379 83.9839 165.379C84.2999 165.379 84.5916 165.433 84.859 165.541C85.1299 165.645 85.3626 165.798 85.557 165.999C85.755 166.197 85.9095 166.444 86.0206 166.739C86.1318 167.03 86.1873 167.364 86.1873 167.739C86.1873 167.885 86.1717 167.982 86.1404 168.031C86.1092 168.079 86.0501 168.104 85.9633 168.104H82.4369C82.4473 168.437 82.4924 168.727 82.5723 168.973C82.6556 169.22 82.7702 169.427 82.9161 169.593C83.0619 169.757 83.2356 169.88 83.437 169.963C83.6384 170.043 83.8641 170.083 84.1142 170.083C84.3468 170.083 84.5465 170.057 84.7132 170.005C84.8833 169.949 85.0292 169.89 85.1507 169.828C85.2723 169.765 85.373 169.708 85.4529 169.656C85.5362 169.6 85.6074 169.572 85.6664 169.572C85.7428 169.572 85.8019 169.602 85.8435 169.661L86.104 170ZM88.2847 163.066V170.739H87.3575V163.066H88.2847ZM90.7207 169.468C90.8908 169.697 91.0766 169.859 91.278 169.953C91.4794 170.046 91.7051 170.093 91.9552 170.093C92.4483 170.093 92.8268 169.918 93.0907 169.567C93.3547 169.217 93.4866 168.716 93.4866 168.067C93.4866 167.723 93.4554 167.428 93.3929 167.182C93.3338 166.935 93.247 166.734 93.1324 166.577C93.0178 166.418 92.8772 166.301 92.7105 166.228C92.5438 166.155 92.3545 166.119 92.1427 166.119C91.8406 166.119 91.5749 166.188 91.3457 166.327C91.12 166.466 90.9117 166.662 90.7207 166.916V169.468ZM90.6738 166.28C90.896 166.006 91.153 165.786 91.4447 165.619C91.7364 165.452 92.0698 165.369 92.4448 165.369C92.7504 165.369 93.0265 165.428 93.273 165.546C93.5196 165.661 93.7297 165.832 93.9033 166.062C94.077 166.287 94.2107 166.569 94.3044 166.905C94.3982 167.242 94.4451 167.63 94.4451 168.067C94.4451 168.456 94.393 168.819 94.2888 169.156C94.1846 169.489 94.0336 169.779 93.8356 170.026C93.6411 170.269 93.4015 170.461 93.1168 170.604C92.8355 170.743 92.5177 170.812 92.1635 170.812C91.8406 170.812 91.5628 170.758 91.3301 170.651C91.1009 170.54 90.8978 170.387 90.7207 170.192V172.526H89.7883V165.463H90.3456C90.4776 165.463 90.5592 165.527 90.5904 165.655L90.6738 166.28Z" fill="#1E1E1E"/>
<circle cx="4.16716" cy="4.16716" r="4.16716" transform="matrix(1 0 0 -1 132.828 152.101)" fill="#E7BF1E"/>
<path d="M128.764 163.275L126.436 170.739H125.53L123.639 165.046C123.621 164.99 123.604 164.931 123.587 164.869C123.573 164.806 123.557 164.74 123.54 164.671C123.523 164.74 123.505 164.806 123.488 164.869C123.47 164.931 123.453 164.99 123.436 165.046L121.534 170.739H120.628L118.3 163.275H119.138C119.229 163.275 119.303 163.297 119.362 163.343C119.425 163.388 119.465 163.445 119.482 163.514L121.024 168.703C121.048 168.796 121.071 168.897 121.092 169.005C121.116 169.112 121.139 169.227 121.159 169.348C121.184 169.227 121.208 169.112 121.232 169.005C121.26 168.894 121.29 168.793 121.321 168.703L123.076 163.514C123.097 163.455 123.137 163.402 123.196 163.353C123.259 163.301 123.333 163.275 123.42 163.275H123.712C123.802 163.275 123.875 163.297 123.931 163.343C123.986 163.388 124.028 163.445 124.056 163.514L125.806 168.703C125.837 168.793 125.865 168.89 125.889 168.994C125.917 169.098 125.943 169.208 125.967 169.322C125.985 169.208 126.004 169.098 126.025 168.994C126.045 168.89 126.068 168.793 126.092 168.703L127.639 163.514C127.657 163.452 127.695 163.396 127.754 163.348C127.816 163.299 127.891 163.275 127.978 163.275H128.764ZM132.598 167.525C132.598 167.31 132.567 167.114 132.505 166.937C132.446 166.756 132.357 166.602 132.239 166.473C132.124 166.341 131.984 166.24 131.817 166.171C131.65 166.098 131.461 166.062 131.249 166.062C130.805 166.062 130.452 166.192 130.192 166.452C129.935 166.709 129.775 167.067 129.713 167.525H132.598ZM133.349 170C133.234 170.138 133.097 170.26 132.937 170.364C132.777 170.465 132.605 170.548 132.421 170.614C132.241 170.68 132.053 170.729 131.859 170.76C131.664 170.795 131.472 170.812 131.281 170.812C130.916 170.812 130.579 170.751 130.27 170.63C129.964 170.505 129.699 170.324 129.473 170.088C129.251 169.849 129.077 169.553 128.952 169.203C128.827 168.852 128.765 168.449 128.765 167.994C128.765 167.626 128.82 167.282 128.931 166.963C129.046 166.643 129.209 166.367 129.421 166.135C129.633 165.898 129.891 165.714 130.197 165.582C130.503 165.447 130.846 165.379 131.228 165.379C131.544 165.379 131.836 165.433 132.104 165.541C132.374 165.645 132.607 165.798 132.802 165.999C132.999 166.197 133.154 166.444 133.265 166.739C133.376 167.03 133.432 167.364 133.432 167.739C133.432 167.885 133.416 167.982 133.385 168.031C133.354 168.079 133.295 168.104 133.208 168.104H129.681C129.692 168.437 129.737 168.727 129.817 168.973C129.9 169.22 130.015 169.427 130.161 169.593C130.306 169.757 130.48 169.88 130.682 169.963C130.883 170.043 131.109 170.083 131.359 170.083C131.591 170.083 131.791 170.057 131.958 170.005C132.128 169.949 132.274 169.89 132.395 169.828C132.517 169.765 132.618 169.708 132.697 169.656C132.781 169.6 132.852 169.572 132.911 169.572C132.987 169.572 133.046 169.602 133.088 169.661L133.349 170ZM135.529 163.066V170.739H134.602V163.066H135.529ZM140.471 166.718C140.297 166.485 140.11 166.324 139.908 166.234C139.707 166.14 139.481 166.093 139.231 166.093C138.741 166.093 138.365 166.268 138.101 166.619C137.837 166.97 137.705 167.47 137.705 168.119C137.705 168.463 137.734 168.758 137.793 169.005C137.852 169.248 137.939 169.449 138.054 169.609C138.168 169.765 138.309 169.88 138.476 169.953C138.642 170.026 138.832 170.062 139.043 170.062C139.349 170.062 139.615 169.993 139.84 169.854C140.07 169.715 140.28 169.519 140.471 169.265V166.718ZM141.398 163.066V170.739H140.846C140.714 170.739 140.63 170.675 140.596 170.547L140.512 169.906C140.287 170.177 140.03 170.395 139.741 170.562C139.453 170.729 139.12 170.812 138.741 170.812C138.439 170.812 138.165 170.755 137.918 170.64C137.672 170.522 137.462 170.35 137.288 170.125C137.114 169.899 136.981 169.618 136.887 169.281C136.793 168.944 136.746 168.557 136.746 168.119C136.746 167.73 136.798 167.369 136.903 167.036C137.007 166.699 137.156 166.407 137.351 166.161C137.545 165.914 137.783 165.721 138.064 165.582C138.349 165.44 138.668 165.369 139.023 165.369C139.346 165.369 139.622 165.424 139.851 165.536C140.083 165.643 140.29 165.794 140.471 165.989V163.066H141.398ZM143.842 165.463V170.739H142.914V165.463H143.842ZM144.04 163.806C144.04 163.896 144.02 163.982 143.982 164.061C143.948 164.138 143.899 164.207 143.836 164.27C143.777 164.329 143.706 164.376 143.623 164.41C143.543 164.445 143.458 164.462 143.368 164.462C143.277 164.462 143.192 164.445 143.112 164.41C143.036 164.376 142.968 164.329 142.909 164.27C142.85 164.207 142.803 164.138 142.769 164.061C142.734 163.982 142.716 163.896 142.716 163.806C142.716 163.716 142.734 163.631 142.769 163.551C142.803 163.468 142.85 163.396 142.909 163.337C142.968 163.275 143.036 163.226 143.112 163.191C143.192 163.157 143.277 163.139 143.368 163.139C143.458 163.139 143.543 163.157 143.623 163.191C143.706 163.226 143.777 163.275 143.836 163.337C143.899 163.396 143.948 163.468 143.982 163.551C144.02 163.631 144.04 163.716 144.04 163.806ZM146.24 166.228C146.355 166.1 146.476 165.983 146.605 165.879C146.733 165.775 146.869 165.687 147.011 165.614C147.157 165.537 147.31 165.48 147.469 165.442C147.633 165.4 147.808 165.379 147.996 165.379C148.284 165.379 148.537 165.428 148.756 165.525C148.978 165.619 149.162 165.754 149.308 165.931C149.458 166.105 149.57 166.315 149.647 166.562C149.723 166.808 149.761 167.081 149.761 167.379V170.739H148.829V167.379C148.829 166.98 148.737 166.671 148.553 166.452C148.372 166.23 148.096 166.119 147.725 166.119C147.45 166.119 147.193 166.185 146.954 166.317C146.718 166.449 146.499 166.628 146.297 166.853V170.739H145.365V165.463H145.922C146.054 165.463 146.136 165.527 146.167 165.655L146.24 166.228ZM153.013 168.161C153.201 168.161 153.366 168.135 153.508 168.083C153.65 168.031 153.77 167.958 153.867 167.864C153.965 167.77 154.037 167.659 154.086 167.531C154.135 167.399 154.159 167.254 154.159 167.098C154.159 166.775 154.06 166.518 153.862 166.327C153.668 166.136 153.385 166.041 153.013 166.041C152.638 166.041 152.351 166.136 152.154 166.327C151.959 166.518 151.862 166.775 151.862 167.098C151.862 167.254 151.886 167.399 151.935 167.531C151.987 167.659 152.062 167.77 152.159 167.864C152.256 167.958 152.376 168.031 152.518 168.083C152.661 168.135 152.826 168.161 153.013 168.161ZM154.685 171.026C154.685 170.897 154.649 170.793 154.576 170.713C154.503 170.633 154.404 170.571 154.279 170.526C154.157 170.481 154.015 170.449 153.852 170.432C153.688 170.411 153.515 170.395 153.331 170.385C153.15 170.375 152.966 170.364 152.779 170.354C152.591 170.343 152.411 170.326 152.237 170.302C152.042 170.392 151.883 170.507 151.758 170.645C151.636 170.781 151.575 170.941 151.575 171.125C151.575 171.243 151.605 171.352 151.664 171.453C151.726 171.557 151.82 171.646 151.945 171.719C152.07 171.795 152.226 171.854 152.414 171.896C152.605 171.941 152.829 171.963 153.086 171.963C153.336 171.963 153.56 171.941 153.758 171.896C153.956 171.851 154.123 171.786 154.258 171.703C154.397 171.62 154.503 171.521 154.576 171.406C154.649 171.291 154.685 171.165 154.685 171.026ZM155.628 165.671V166.015C155.628 166.129 155.555 166.202 155.409 166.234L154.81 166.312C154.928 166.541 154.987 166.794 154.987 167.072C154.987 167.329 154.937 167.564 154.836 167.775C154.739 167.984 154.604 168.163 154.43 168.312C154.256 168.461 154.048 168.576 153.805 168.656C153.562 168.736 153.298 168.775 153.013 168.775C152.766 168.775 152.534 168.746 152.315 168.687C152.204 168.756 152.119 168.831 152.06 168.911C152.001 168.987 151.971 169.065 151.971 169.145C151.971 169.27 152.022 169.366 152.122 169.432C152.226 169.494 152.362 169.539 152.529 169.567C152.695 169.595 152.885 169.612 153.096 169.619C153.312 169.626 153.53 169.638 153.753 169.656C153.978 169.67 154.197 169.696 154.409 169.734C154.624 169.772 154.815 169.835 154.982 169.921C155.149 170.008 155.282 170.128 155.383 170.281C155.487 170.434 155.539 170.632 155.539 170.875C155.539 171.1 155.482 171.319 155.367 171.531C155.256 171.743 155.095 171.93 154.883 172.094C154.671 172.26 154.411 172.392 154.102 172.489C153.796 172.59 153.451 172.641 153.065 172.641C152.68 172.641 152.343 172.602 152.055 172.526C151.766 172.45 151.527 172.347 151.336 172.219C151.145 172.09 151.001 171.941 150.903 171.771C150.81 171.604 150.763 171.429 150.763 171.245C150.763 170.984 150.844 170.764 151.008 170.583C151.171 170.402 151.395 170.258 151.68 170.151C151.523 170.081 151.398 169.989 151.304 169.875C151.214 169.757 151.169 169.598 151.169 169.401C151.169 169.324 151.183 169.246 151.211 169.166C151.239 169.083 151.28 169.001 151.336 168.921C151.395 168.838 151.466 168.76 151.549 168.687C151.633 168.614 151.73 168.55 151.841 168.494C151.581 168.348 151.377 168.156 151.232 167.916C151.086 167.673 151.013 167.392 151.013 167.072C151.013 166.815 151.061 166.583 151.159 166.374C151.259 166.162 151.398 165.983 151.575 165.838C151.752 165.688 151.963 165.574 152.206 165.494C152.452 165.414 152.721 165.374 153.013 165.374C153.242 165.374 153.456 165.4 153.654 165.452C153.852 165.501 154.032 165.574 154.195 165.671H155.628Z" fill="#1E1E1E"/>
<circle cx="4.16716" cy="4.16716" r="4.16716" transform="matrix(1 0 0 -1 207.837 152.101)" fill="#1E1E1E"/>
<path d="M191.586 164.442C191.554 164.494 191.52 164.534 191.482 164.561C191.447 164.586 191.403 164.598 191.351 164.598C191.292 164.598 191.223 164.568 191.143 164.509C191.063 164.45 190.962 164.386 190.841 164.317C190.723 164.244 190.579 164.178 190.408 164.119C190.242 164.06 190.039 164.03 189.799 164.03C189.573 164.03 189.374 164.061 189.2 164.124C189.03 164.183 188.886 164.265 188.768 164.369C188.653 164.473 188.566 164.596 188.507 164.739C188.448 164.877 188.419 165.029 188.419 165.192C188.419 165.4 188.469 165.574 188.57 165.713C188.674 165.848 188.809 165.964 188.976 166.062C189.146 166.159 189.337 166.244 189.549 166.317C189.764 166.386 189.983 166.459 190.205 166.536C190.431 166.612 190.65 166.699 190.862 166.796C191.077 166.89 191.268 167.01 191.435 167.155C191.605 167.301 191.74 167.48 191.841 167.692C191.945 167.904 191.997 168.164 191.997 168.473C191.997 168.8 191.942 169.107 191.831 169.395C191.719 169.68 191.556 169.928 191.341 170.14C191.129 170.352 190.867 170.519 190.554 170.64C190.245 170.762 189.893 170.823 189.497 170.823C189.011 170.823 188.57 170.736 188.174 170.562C187.778 170.385 187.439 170.147 187.158 169.849L187.45 169.369C187.478 169.331 187.511 169.3 187.549 169.276C187.59 169.248 187.636 169.234 187.684 169.234C187.729 169.234 187.78 169.253 187.835 169.291C187.894 169.326 187.96 169.371 188.033 169.427C188.106 169.482 188.189 169.543 188.283 169.609C188.377 169.675 188.483 169.736 188.601 169.791C188.723 169.847 188.86 169.894 189.012 169.932C189.165 169.967 189.337 169.984 189.528 169.984C189.768 169.984 189.981 169.951 190.169 169.885C190.356 169.819 190.514 169.727 190.643 169.609C190.775 169.487 190.876 169.343 190.945 169.177C191.014 169.01 191.049 168.824 191.049 168.619C191.049 168.393 190.997 168.209 190.893 168.067C190.792 167.921 190.659 167.8 190.492 167.702C190.325 167.605 190.134 167.524 189.919 167.458C189.704 167.388 189.485 167.319 189.263 167.249C189.04 167.176 188.821 167.093 188.606 166.999C188.391 166.905 188.2 166.784 188.033 166.635C187.867 166.485 187.731 166.299 187.627 166.077C187.526 165.852 187.476 165.574 187.476 165.244C187.476 164.98 187.526 164.725 187.627 164.478C187.731 164.232 187.88 164.013 188.075 163.822C188.273 163.631 188.514 163.478 188.799 163.363C189.087 163.249 189.417 163.191 189.789 163.191C190.205 163.191 190.584 163.257 190.924 163.389C191.268 163.521 191.57 163.712 191.831 163.962L191.586 164.442ZM196.847 166.4C196.819 166.438 196.792 166.468 196.764 166.489C196.736 166.51 196.698 166.52 196.649 166.52C196.597 166.52 196.54 166.499 196.477 166.457C196.415 166.412 196.337 166.364 196.243 166.312C196.153 166.26 196.04 166.213 195.904 166.171C195.772 166.126 195.609 166.103 195.415 166.103C195.154 166.103 194.925 166.15 194.727 166.244C194.529 166.334 194.362 166.466 194.227 166.64C194.095 166.813 193.994 167.024 193.925 167.27C193.859 167.517 193.826 167.793 193.826 168.098C193.826 168.418 193.862 168.703 193.935 168.953C194.008 169.199 194.111 169.408 194.243 169.578C194.378 169.744 194.54 169.873 194.727 169.963C194.918 170.05 195.132 170.093 195.368 170.093C195.594 170.093 195.779 170.067 195.925 170.015C196.071 169.96 196.191 169.899 196.285 169.833C196.382 169.767 196.462 169.708 196.524 169.656C196.59 169.6 196.654 169.572 196.717 169.572C196.793 169.572 196.852 169.602 196.894 169.661L197.154 170C197.04 170.142 196.91 170.264 196.764 170.364C196.618 170.465 196.46 170.55 196.29 170.619C196.123 170.685 195.948 170.734 195.764 170.765C195.58 170.797 195.392 170.812 195.201 170.812C194.871 170.812 194.564 170.751 194.279 170.63C193.998 170.508 193.753 170.333 193.545 170.104C193.336 169.871 193.173 169.586 193.055 169.249C192.937 168.913 192.878 168.529 192.878 168.098C192.878 167.706 192.932 167.343 193.039 167.01C193.151 166.676 193.31 166.39 193.519 166.15C193.73 165.907 193.989 165.718 194.295 165.582C194.604 165.447 194.958 165.379 195.357 165.379C195.729 165.379 196.055 165.44 196.337 165.562C196.621 165.68 196.873 165.848 197.092 166.067L196.847 166.4ZM201.01 168.364C200.582 168.378 200.218 168.413 199.916 168.468C199.617 168.52 199.372 168.59 199.181 168.677C198.994 168.763 198.856 168.866 198.77 168.984C198.686 169.102 198.645 169.234 198.645 169.38C198.645 169.519 198.667 169.638 198.712 169.739C198.758 169.84 198.818 169.923 198.895 169.989C198.975 170.052 199.067 170.099 199.171 170.13C199.278 170.158 199.393 170.171 199.515 170.171C199.678 170.171 199.827 170.156 199.963 170.125C200.098 170.09 200.225 170.041 200.343 169.979C200.464 169.916 200.579 169.842 200.687 169.755C200.798 169.668 200.905 169.569 201.01 169.458V168.364ZM198.014 166.207C198.306 165.926 198.62 165.716 198.957 165.577C199.294 165.438 199.667 165.369 200.077 165.369C200.372 165.369 200.634 165.417 200.864 165.515C201.093 165.612 201.286 165.747 201.442 165.921C201.598 166.095 201.716 166.305 201.796 166.551C201.876 166.798 201.916 167.069 201.916 167.364V170.739H201.504C201.414 170.739 201.345 170.725 201.296 170.698C201.247 170.666 201.209 170.607 201.181 170.52L201.077 170.02C200.938 170.149 200.803 170.264 200.671 170.364C200.539 170.461 200.4 170.545 200.254 170.614C200.108 170.68 199.952 170.731 199.785 170.765C199.622 170.804 199.44 170.823 199.238 170.823C199.034 170.823 198.841 170.795 198.66 170.739C198.48 170.68 198.322 170.593 198.186 170.479C198.054 170.364 197.948 170.22 197.869 170.046C197.792 169.869 197.754 169.661 197.754 169.421C197.754 169.213 197.811 169.013 197.926 168.822C198.04 168.628 198.226 168.456 198.483 168.307C198.74 168.157 199.075 168.036 199.489 167.942C199.902 167.845 200.409 167.789 201.01 167.775V167.364C201.01 166.954 200.921 166.645 200.744 166.437C200.567 166.225 200.308 166.119 199.968 166.119C199.739 166.119 199.546 166.148 199.39 166.207C199.237 166.263 199.103 166.327 198.988 166.4C198.877 166.47 198.78 166.534 198.697 166.593C198.617 166.648 198.537 166.676 198.457 166.676C198.395 166.676 198.341 166.661 198.296 166.629C198.251 166.595 198.212 166.553 198.181 166.504L198.014 166.207ZM203.591 170.739V166.254L203.007 166.187C202.934 166.169 202.874 166.143 202.825 166.108C202.78 166.07 202.757 166.016 202.757 165.947V165.567H203.591V165.134C203.591 164.832 203.632 164.565 203.716 164.332C203.802 164.096 203.924 163.898 204.08 163.738C204.24 163.575 204.431 163.452 204.653 163.369C204.876 163.285 205.126 163.244 205.403 163.244C205.64 163.244 205.857 163.278 206.054 163.348L206.034 163.817C206.027 163.9 205.98 163.945 205.893 163.952C205.81 163.959 205.697 163.962 205.554 163.962C205.395 163.962 205.249 163.983 205.117 164.025C204.988 164.063 204.877 164.129 204.783 164.223C204.69 164.317 204.617 164.442 204.565 164.598C204.516 164.751 204.492 164.94 204.492 165.166V165.567H206.872V164.999C206.872 164.697 206.914 164.429 206.997 164.197C207.084 163.961 207.206 163.763 207.362 163.603C207.522 163.44 207.713 163.316 207.935 163.233C208.157 163.15 208.407 163.108 208.685 163.108C208.918 163.108 209.135 163.143 209.336 163.212L209.315 163.676C209.308 163.759 209.261 163.804 209.175 163.811C209.091 163.818 208.978 163.822 208.836 163.822C208.676 163.822 208.53 163.843 208.399 163.884C208.27 163.926 208.159 163.994 208.065 164.087C207.971 164.181 207.898 164.304 207.846 164.457C207.798 164.61 207.773 164.799 207.773 165.025V165.567H209.294V166.239H207.805V170.739H206.872V166.239H204.523V170.739H203.591ZM212.226 165.379C212.612 165.379 212.959 165.443 213.268 165.572C213.577 165.7 213.841 165.883 214.06 166.119C214.279 166.355 214.445 166.642 214.56 166.978C214.678 167.312 214.737 167.685 214.737 168.098C214.737 168.515 214.678 168.89 214.56 169.223C214.445 169.557 214.279 169.842 214.06 170.078C213.841 170.314 213.577 170.496 213.268 170.625C212.959 170.75 212.612 170.812 212.226 170.812C211.838 170.812 211.487 170.75 211.174 170.625C210.865 170.496 210.601 170.314 210.382 170.078C210.164 169.842 209.995 169.557 209.877 169.223C209.763 168.89 209.705 168.515 209.705 168.098C209.705 167.685 209.763 167.312 209.877 166.978C209.995 166.642 210.164 166.355 210.382 166.119C210.601 165.883 210.865 165.7 211.174 165.572C211.487 165.443 211.838 165.379 212.226 165.379ZM212.226 170.088C212.747 170.088 213.136 169.915 213.393 169.567C213.65 169.217 213.779 168.729 213.779 168.104C213.779 167.475 213.65 166.985 213.393 166.635C213.136 166.284 212.747 166.108 212.226 166.108C211.963 166.108 211.732 166.154 211.534 166.244C211.339 166.334 211.176 166.464 211.044 166.635C210.916 166.805 210.818 167.015 210.752 167.265C210.69 167.511 210.659 167.791 210.659 168.104C210.659 168.729 210.787 169.217 211.044 169.567C211.304 169.915 211.699 170.088 212.226 170.088ZM216.872 163.066V170.739H215.944V163.066H216.872ZM221.813 166.718C221.639 166.485 221.452 166.324 221.251 166.234C221.049 166.14 220.823 166.093 220.573 166.093C220.084 166.093 219.707 166.268 219.443 166.619C219.179 166.97 219.047 167.47 219.047 168.119C219.047 168.463 219.077 168.758 219.136 169.005C219.195 169.248 219.282 169.449 219.396 169.609C219.511 169.765 219.651 169.88 219.818 169.953C219.985 170.026 220.174 170.062 220.386 170.062C220.691 170.062 220.957 169.993 221.183 169.854C221.412 169.715 221.622 169.519 221.813 169.265V166.718ZM222.74 163.066V170.739H222.188C222.056 170.739 221.973 170.675 221.938 170.547L221.855 169.906C221.629 170.177 221.372 170.395 221.084 170.562C220.796 170.729 220.462 170.812 220.084 170.812C219.782 170.812 219.507 170.755 219.261 170.64C219.014 170.522 218.804 170.35 218.63 170.125C218.457 169.899 218.323 169.618 218.229 169.281C218.136 168.944 218.089 168.557 218.089 168.119C218.089 167.73 218.141 167.369 218.245 167.036C218.349 166.699 218.498 166.407 218.693 166.161C218.887 165.914 219.125 165.721 219.407 165.582C219.691 165.44 220.011 165.369 220.365 165.369C220.688 165.369 220.964 165.424 221.193 165.536C221.426 165.643 221.633 165.794 221.813 165.989V163.066H222.74ZM225.184 165.463V170.739H224.257V165.463H225.184ZM225.382 163.806C225.382 163.896 225.363 163.982 225.325 164.061C225.29 164.138 225.241 164.207 225.179 164.27C225.12 164.329 225.049 164.376 224.965 164.41C224.885 164.445 224.8 164.462 224.71 164.462C224.62 164.462 224.535 164.445 224.455 164.41C224.378 164.376 224.311 164.329 224.252 164.27C224.193 164.207 224.146 164.138 224.111 164.061C224.076 163.982 224.059 163.896 224.059 163.806C224.059 163.716 224.076 163.631 224.111 163.551C224.146 163.468 224.193 163.396 224.252 163.337C224.311 163.275 224.378 163.226 224.455 163.191C224.535 163.157 224.62 163.139 224.71 163.139C224.8 163.139 224.885 163.157 224.965 163.191C225.049 163.226 225.12 163.275 225.179 163.337C225.241 163.396 225.29 163.468 225.325 163.551C225.363 163.631 225.382 163.716 225.382 163.806ZM227.583 166.228C227.697 166.1 227.819 165.983 227.947 165.879C228.076 165.775 228.211 165.687 228.354 165.614C228.499 165.537 228.652 165.48 228.812 165.442C228.975 165.4 229.151 165.379 229.338 165.379C229.626 165.379 229.88 165.428 230.099 165.525C230.321 165.619 230.505 165.754 230.651 165.931C230.8 166.105 230.913 166.315 230.989 166.562C231.066 166.808 231.104 167.081 231.104 167.379V170.739H230.171V167.379C230.171 166.98 230.079 166.671 229.895 166.452C229.715 166.23 229.439 166.119 229.067 166.119C228.793 166.119 228.536 166.185 228.296 166.317C228.06 166.449 227.841 166.628 227.64 166.853V170.739H226.708V165.463H227.265C227.397 165.463 227.478 165.527 227.51 165.655L227.583 166.228ZM234.355 168.161C234.543 168.161 234.708 168.135 234.85 168.083C234.993 168.031 235.113 167.958 235.21 167.864C235.307 167.77 235.38 167.659 235.429 167.531C235.477 167.399 235.501 167.254 235.501 167.098C235.501 166.775 235.402 166.518 235.205 166.327C235.01 166.136 234.727 166.041 234.355 166.041C233.98 166.041 233.694 166.136 233.496 166.327C233.302 166.518 233.204 166.775 233.204 167.098C233.204 167.254 233.229 167.399 233.277 167.531C233.329 167.659 233.404 167.77 233.501 167.864C233.598 167.958 233.718 168.031 233.861 168.083C234.003 168.135 234.168 168.161 234.355 168.161ZM236.028 171.026C236.028 170.897 235.991 170.793 235.918 170.713C235.845 170.633 235.746 170.571 235.621 170.526C235.5 170.481 235.357 170.449 235.194 170.432C235.031 170.411 234.857 170.395 234.673 170.385C234.493 170.375 234.309 170.364 234.121 170.354C233.934 170.343 233.753 170.326 233.579 170.302C233.385 170.392 233.225 170.507 233.1 170.645C232.979 170.781 232.918 170.941 232.918 171.125C232.918 171.243 232.947 171.352 233.006 171.453C233.069 171.557 233.163 171.646 233.288 171.719C233.413 171.795 233.569 171.854 233.756 171.896C233.947 171.941 234.171 171.963 234.428 171.963C234.678 171.963 234.902 171.941 235.1 171.896C235.298 171.851 235.465 171.786 235.6 171.703C235.739 171.62 235.845 171.521 235.918 171.406C235.991 171.291 236.028 171.165 236.028 171.026ZM236.97 165.671V166.015C236.97 166.129 236.897 166.202 236.752 166.234L236.153 166.312C236.271 166.541 236.33 166.794 236.33 167.072C236.33 167.329 236.279 167.564 236.179 167.775C236.081 167.984 235.946 168.163 235.772 168.312C235.599 168.461 235.39 168.576 235.147 168.656C234.904 168.736 234.64 168.775 234.355 168.775C234.109 168.775 233.876 168.746 233.657 168.687C233.546 168.756 233.461 168.831 233.402 168.911C233.343 168.987 233.314 169.065 233.314 169.145C233.314 169.27 233.364 169.366 233.465 169.432C233.569 169.494 233.704 169.539 233.871 169.567C234.038 169.595 234.227 169.612 234.439 169.619C234.654 169.626 234.873 169.638 235.095 169.656C235.321 169.67 235.54 169.696 235.751 169.734C235.967 169.772 236.158 169.835 236.324 169.921C236.491 170.008 236.625 170.128 236.726 170.281C236.83 170.434 236.882 170.632 236.882 170.875C236.882 171.1 236.825 171.319 236.71 171.531C236.599 171.743 236.437 171.93 236.225 172.094C236.014 172.26 235.753 172.392 235.444 172.489C235.139 172.59 234.793 172.641 234.408 172.641C234.022 172.641 233.685 172.602 233.397 172.526C233.109 172.45 232.869 172.347 232.678 172.219C232.487 172.09 232.343 171.941 232.246 171.771C232.152 171.604 232.105 171.429 232.105 171.245C232.105 170.984 232.187 170.764 232.35 170.583C232.513 170.402 232.737 170.258 233.022 170.151C232.866 170.081 232.741 169.989 232.647 169.875C232.557 169.757 232.512 169.598 232.512 169.401C232.512 169.324 232.525 169.246 232.553 169.166C232.581 169.083 232.623 169.001 232.678 168.921C232.737 168.838 232.808 168.76 232.892 168.687C232.975 168.614 233.072 168.55 233.183 168.494C232.923 168.348 232.72 168.156 232.574 167.916C232.428 167.673 232.355 167.392 232.355 167.072C232.355 166.815 232.404 166.583 232.501 166.374C232.602 166.162 232.741 165.983 232.918 165.838C233.095 165.688 233.305 165.574 233.548 165.494C233.795 165.414 234.064 165.374 234.355 165.374C234.585 165.374 234.798 165.4 234.996 165.452C235.194 165.501 235.375 165.574 235.538 165.671H236.97Z" fill="#1E1E1E"/>
<circle cx="4.16716" cy="4.16716" r="4.16716" transform="matrix(1 0 0 -1 282.846 152.101)" fill="#C33E3E"/>
<path d="M272.407 169.89V170.739H268.173V163.275H269.178V169.89H272.407ZM276.165 168.364C275.738 168.378 275.373 168.413 275.071 168.468C274.772 168.52 274.528 168.59 274.337 168.677C274.149 168.763 274.012 168.866 273.925 168.984C273.842 169.102 273.8 169.234 273.8 169.38C273.8 169.519 273.823 169.638 273.868 169.739C273.913 169.84 273.974 169.923 274.05 169.989C274.13 170.052 274.222 170.099 274.326 170.13C274.434 170.158 274.548 170.171 274.67 170.171C274.833 170.171 274.982 170.156 275.118 170.125C275.253 170.09 275.38 170.041 275.498 169.979C275.62 169.916 275.734 169.842 275.842 169.755C275.953 169.668 276.061 169.569 276.165 169.458V168.364ZM273.17 166.207C273.461 165.926 273.776 165.716 274.113 165.577C274.449 165.438 274.823 165.369 275.233 165.369C275.528 165.369 275.79 165.417 276.019 165.515C276.248 165.612 276.441 165.747 276.597 165.921C276.754 166.095 276.872 166.305 276.951 166.551C277.031 166.798 277.071 167.069 277.071 167.364V170.739H276.66C276.569 170.739 276.5 170.725 276.451 170.698C276.403 170.666 276.365 170.607 276.337 170.52L276.233 170.02C276.094 170.149 275.958 170.264 275.826 170.364C275.694 170.461 275.555 170.545 275.41 170.614C275.264 170.68 275.108 170.731 274.941 170.765C274.778 170.804 274.595 170.823 274.394 170.823C274.189 170.823 273.996 170.795 273.816 170.739C273.635 170.68 273.477 170.593 273.342 170.479C273.21 170.364 273.104 170.22 273.024 170.046C272.948 169.869 272.909 169.661 272.909 169.421C272.909 169.213 272.967 169.013 273.081 168.822C273.196 168.628 273.382 168.456 273.639 168.307C273.896 168.157 274.231 168.036 274.644 167.942C275.057 167.845 275.564 167.789 276.165 167.775V167.364C276.165 166.954 276.076 166.645 275.899 166.437C275.722 166.225 275.463 166.119 275.123 166.119C274.894 166.119 274.701 166.148 274.545 166.207C274.392 166.263 274.258 166.327 274.144 166.4C274.033 166.47 273.935 166.534 273.852 166.593C273.772 166.648 273.692 166.676 273.613 166.676C273.55 166.676 273.496 166.661 273.451 166.629C273.406 166.595 273.368 166.553 273.336 166.504L273.17 166.207ZM282.823 165.463V170.739H282.271C282.139 170.739 282.055 170.675 282.021 170.547L281.948 169.979C281.718 170.232 281.461 170.437 281.177 170.593C280.892 170.746 280.565 170.823 280.197 170.823C279.909 170.823 279.654 170.776 279.432 170.682C279.213 170.585 279.029 170.449 278.88 170.276C278.73 170.102 278.617 169.892 278.541 169.645C278.468 169.399 278.432 169.126 278.432 168.828V165.463H279.359V168.828C279.359 169.227 279.449 169.536 279.63 169.755C279.814 169.974 280.093 170.083 280.468 170.083C280.743 170.083 280.998 170.019 281.234 169.89C281.474 169.758 281.694 169.578 281.896 169.348V165.463H282.823ZM285.168 166.228C285.283 166.1 285.404 165.983 285.533 165.879C285.661 165.775 285.797 165.687 285.939 165.614C286.085 165.537 286.238 165.48 286.397 165.442C286.56 165.4 286.736 165.379 286.923 165.379C287.212 165.379 287.465 165.428 287.684 165.525C287.906 165.619 288.09 165.754 288.236 165.931C288.385 166.105 288.498 166.315 288.575 166.562C288.651 166.808 288.689 167.081 288.689 167.379V170.739H287.757V167.379C287.757 166.98 287.665 166.671 287.481 166.452C287.3 166.23 287.024 166.119 286.653 166.119C286.378 166.119 286.121 166.185 285.882 166.317C285.645 166.449 285.427 166.628 285.225 166.853V170.739H284.293V165.463H284.85C284.982 165.463 285.064 165.527 285.095 165.655L285.168 166.228ZM293.54 166.718C293.366 166.485 293.179 166.324 292.977 166.234C292.776 166.14 292.55 166.093 292.3 166.093C291.811 166.093 291.434 166.268 291.17 166.619C290.906 166.97 290.774 167.47 290.774 168.119C290.774 168.463 290.804 168.758 290.863 169.005C290.922 169.248 291.008 169.449 291.123 169.609C291.238 169.765 291.378 169.88 291.545 169.953C291.712 170.026 291.901 170.062 292.113 170.062C292.418 170.062 292.684 169.993 292.91 169.854C293.139 169.715 293.349 169.519 293.54 169.265V166.718ZM294.467 163.066V170.739H293.915C293.783 170.739 293.7 170.675 293.665 170.547L293.582 169.906C293.356 170.177 293.099 170.395 292.811 170.562C292.522 170.729 292.189 170.812 291.811 170.812C291.508 170.812 291.234 170.755 290.988 170.64C290.741 170.522 290.531 170.35 290.357 170.125C290.184 169.899 290.05 169.618 289.956 169.281C289.862 168.944 289.816 168.557 289.816 168.119C289.816 167.73 289.868 167.369 289.972 167.036C290.076 166.699 290.225 166.407 290.42 166.161C290.614 165.914 290.852 165.721 291.133 165.582C291.418 165.44 291.738 165.369 292.092 165.369C292.415 165.369 292.691 165.424 292.92 165.536C293.153 165.643 293.359 165.794 293.54 165.989V163.066H294.467ZM296.812 166.52C296.979 166.159 297.183 165.878 297.427 165.676C297.67 165.471 297.967 165.369 298.317 165.369C298.428 165.369 298.534 165.381 298.635 165.405C298.739 165.43 298.831 165.468 298.911 165.52L298.843 166.213C298.823 166.299 298.77 166.343 298.687 166.343C298.639 166.343 298.567 166.332 298.474 166.312C298.38 166.291 298.274 166.28 298.156 166.28C297.989 166.28 297.84 166.305 297.708 166.353C297.579 166.402 297.463 166.475 297.359 166.572C297.258 166.666 297.166 166.784 297.083 166.926C297.003 167.065 296.93 167.225 296.864 167.406V170.739H295.932V165.463H296.463C296.564 165.463 296.633 165.482 296.671 165.52C296.709 165.558 296.736 165.624 296.749 165.718L296.812 166.52ZM304.279 165.463L301.336 172.297C301.305 172.366 301.265 172.422 301.216 172.463C301.171 172.505 301.1 172.526 301.003 172.526H300.315L301.279 170.432L299.101 165.463H299.904C299.983 165.463 300.046 165.483 300.091 165.525C300.14 165.563 300.173 165.607 300.19 165.655L301.602 168.979C301.657 169.124 301.704 169.277 301.742 169.437C301.791 169.274 301.843 169.119 301.899 168.973L303.269 165.655C303.289 165.6 303.324 165.555 303.373 165.52C303.425 165.482 303.482 165.463 303.545 165.463H304.279Z" fill="#1E1E1E"/>
</svg>
