<svg width="99" height="99" viewBox="0 0 99 99" fill="none" xmlns="http://www.w3.org/2000/svg">
<rect width="99" height="99" rx="49.5" fill="#F1FFF5"/>
<g clip-path="url(#clip0_147_116)">
<path d="M67.8333 62.8333H54.1933C53.9443 62.1363 53.5437 61.5032 53.0203 60.9797C52.4968 60.4563 51.8637 60.0557 51.1667 59.8067V52.8333H61.1667C62.1778 52.837 63.1661 52.5329 64.0002 51.9615C64.8344 51.39 65.4749 50.5782 65.8367 49.634C66.1984 48.6898 66.2643 47.6579 66.0256 46.6754C65.7868 45.6928 65.2547 44.8062 64.5 44.1333V36.1667C64.5 34.3986 63.7976 32.7029 62.5474 31.4526C61.2971 30.2024 59.6014 29.5 57.8333 29.5H41.1667C39.3986 29.5 37.7029 30.2024 36.4526 31.4526C35.2024 32.7029 34.5 34.3986 34.5 36.1667V44.1333C33.7453 44.8062 33.2132 45.6928 32.9744 46.6754C32.7357 47.6579 32.8016 48.6898 33.1633 49.634C33.5251 50.5782 34.1656 51.39 34.9998 51.9615C35.8339 52.5329 36.8222 52.837 37.8333 52.8333H47.8333V59.8067C47.1363 60.0557 46.5032 60.4563 45.9797 60.9797C45.4563 61.5032 45.0557 62.1363 44.8067 62.8333H31.1667C30.7246 62.8333 30.3007 63.0089 29.9882 63.3215C29.6756 63.634 29.5 64.058 29.5 64.5C29.5 64.942 29.6756 65.366 29.9882 65.6785C30.3007 65.9911 30.7246 66.1667 31.1667 66.1667H44.8067C45.1461 67.1409 45.7803 67.9854 46.6212 68.583C47.4622 69.1805 48.4683 69.5016 49.5 69.5016C50.5317 69.5016 51.5378 69.1805 52.3788 68.583C53.2197 67.9854 53.8539 67.1409 54.1933 66.1667H67.8333C68.2754 66.1667 68.6993 65.9911 69.0118 65.6785C69.3244 65.366 69.5 64.942 69.5 64.5C69.5 64.058 69.3244 63.634 69.0118 63.3215C68.6993 63.0089 68.2754 62.8333 67.8333 62.8333ZM37.8333 36.1667C37.8333 35.2826 38.1845 34.4348 38.8096 33.8096C39.4348 33.1845 40.2826 32.8333 41.1667 32.8333H57.8333C58.7174 32.8333 59.5652 33.1845 60.1904 33.8096C60.8155 34.4348 61.1667 35.2826 61.1667 36.1667V42.8333H55.19C54.7521 42.8321 54.3183 42.9179 53.9138 43.0855C53.5093 43.2532 53.142 43.4994 52.8333 43.81L52.1433 44.5H46.8567L46.1667 43.81C45.858 43.4994 45.4907 43.2532 45.0862 43.0855C44.6817 42.9179 44.2479 42.8321 43.81 42.8333H37.8333V36.1667ZM36.1667 47.8333C36.1667 47.3913 36.3423 46.9674 36.6548 46.6548C36.9674 46.3423 37.3913 46.1667 37.8333 46.1667H43.81L44.5 46.8567C44.8087 47.1673 45.1759 47.4135 45.5805 47.5812C45.985 47.7488 46.4188 47.8345 46.8567 47.8333H52.1433C52.5812 47.8345 53.015 47.7488 53.4195 47.5812C53.8241 47.4135 54.1913 47.1673 54.5 46.8567L55.19 46.1667H61.1667C61.6087 46.1667 62.0326 46.3423 62.3452 46.6548C62.6577 46.9674 62.8333 47.3913 62.8333 47.8333C62.8333 48.2754 62.6577 48.6993 62.3452 49.0118C62.0326 49.3244 61.6087 49.5 61.1667 49.5H37.8333C37.3913 49.5 36.9674 49.3244 36.6548 49.0118C36.3423 48.6993 36.1667 48.2754 36.1667 47.8333ZM49.5 66.1667C49.1704 66.1667 48.8481 66.0689 48.574 65.8858C48.3 65.7026 48.0863 65.4423 47.9602 65.1378C47.8341 64.8333 47.801 64.4981 47.8654 64.1748C47.9297 63.8515 48.0884 63.5546 48.3215 63.3215C48.5546 63.0884 48.8515 62.9297 49.1748 62.8654C49.4981 62.801 49.8333 62.8341 50.1378 62.9602C50.4423 63.0863 50.7026 63.3 50.8858 63.574C51.0689 63.8481 51.1667 64.1704 51.1667 64.5C51.1667 64.942 50.9911 65.366 50.6785 65.6785C50.3659 65.9911 49.942 66.1667 49.5 66.1667Z" fill="#0DAA37"/>
</g>
<defs>
<clipPath id="clip0_147_116">
<rect width="40" height="40" fill="white" transform="translate(29.5 29.5)"/>
</clipPath>
</defs>
</svg>
