<svg width="99" height="99" viewBox="0 0 99 99" fill="none" xmlns="http://www.w3.org/2000/svg">
<rect width="99" height="99" rx="49.5" fill="#8200B5" fill-opacity="0.1"/>
<g clip-path="url(#clip0_147_129)">
<path d="M61.1667 29.5H37.8333C35.624 29.5026 33.5059 30.3815 31.9437 31.9437C30.3815 33.5059 29.5026 35.624 29.5 37.8333L29.5 61.1667C29.5026 63.376 30.3815 65.4941 31.9437 67.0563C33.5059 68.6185 35.624 69.4974 37.8333 69.5H61.1667C63.376 69.4974 65.4941 68.6185 67.0563 67.0563C68.6185 65.4941 69.4974 63.376 69.5 61.1667V37.8333C69.4974 35.624 68.6185 33.5059 67.0563 31.9437C65.4941 30.3815 63.376 29.5026 61.1667 29.5V29.5ZM41.1667 66.1667V64.5C41.1667 62.2899 42.0446 60.1702 43.6074 58.6074C45.1702 57.0446 47.2899 56.1667 49.5 56.1667C51.7101 56.1667 53.8298 57.0446 55.3926 58.6074C56.9554 60.1702 57.8333 62.2899 57.8333 64.5V66.1667H41.1667ZM66.1667 61.1667C66.1667 62.4927 65.6399 63.7645 64.7022 64.7022C63.7645 65.6399 62.4927 66.1667 61.1667 66.1667V64.5C61.1667 61.4058 59.9375 58.4383 57.7496 56.2504C55.5617 54.0625 52.5942 52.8333 49.5 52.8333C46.4058 52.8333 43.4383 54.0625 41.2504 56.2504C39.0625 58.4383 37.8333 61.4058 37.8333 64.5V66.1667C36.5073 66.1667 35.2355 65.6399 34.2978 64.7022C33.3601 63.7645 32.8333 62.4927 32.8333 61.1667V37.8333C32.8333 36.5073 33.3601 35.2355 34.2978 34.2978C35.2355 33.3601 36.5073 32.8333 37.8333 32.8333H61.1667C62.4927 32.8333 63.7645 33.3601 64.7022 34.2978C65.6399 35.2355 66.1667 36.5073 66.1667 37.8333V61.1667Z" fill="#8200B5"/>
<path d="M49.5002 36.1672C48.1816 36.1672 46.8927 36.5582 45.7964 37.2908C44.7 38.0233 43.8456 39.0645 43.341 40.2827C42.8364 41.5009 42.7044 42.8413 42.9616 44.1345C43.2188 45.4277 43.8538 46.6156 44.7861 47.5479C45.7185 48.4803 46.9064 49.1152 48.1996 49.3725C49.4928 49.6297 50.8332 49.4977 52.0514 48.9931C53.2696 48.4885 54.3108 47.634 55.0433 46.5377C55.7758 45.4414 56.1668 44.1524 56.1668 42.8339C56.1668 41.0658 55.4645 39.3701 54.2142 38.1199C52.964 36.8696 51.2683 36.1672 49.5002 36.1672ZM49.5002 46.1672C48.8409 46.1672 48.1964 45.9717 47.6483 45.6055C47.1001 45.2392 46.6729 44.7186 46.4206 44.1095C46.1683 43.5004 46.1023 42.8302 46.2309 42.1836C46.3595 41.537 46.677 40.9431 47.1431 40.4769C47.6093 40.0107 48.2033 39.6932 48.8499 39.5646C49.4965 39.436 50.1667 39.502 50.7758 39.7543C51.3849 40.0066 51.9055 40.4338 52.2717 40.982C52.638 41.5302 52.8335 42.1746 52.8335 42.8339C52.8335 43.718 52.4823 44.5658 51.8572 45.1909C51.2321 45.816 50.3842 46.1672 49.5002 46.1672Z" fill="#8200B5"/>
</g>
<defs>
<clipPath id="clip0_147_129">
<rect width="40" height="40" fill="white" transform="translate(29.5 29.5)"/>
</clipPath>
</defs>
</svg>
