<svg width="29" height="29" viewBox="0 0 29 29" fill="none" xmlns="http://www.w3.org/2000/svg">
<g clip-path="url(#clip0_546_5325)">
<path d="M14.1919 2.55566C17.9839 2.55566 18.4329 2.57229 19.9242 2.63881C21.3101 2.69979 22.0585 2.93263 22.5574 3.12666C23.2171 3.38167 23.6939 3.69212 24.1873 4.18551C24.6862 4.68445 24.9911 5.15567 25.2461 5.81537C25.4402 6.3143 25.673 7.06825 25.734 8.44864C25.8005 9.94545 25.8171 10.3945 25.8171 14.1809C25.8171 17.9728 25.8005 18.4218 25.734 19.9131C25.673 21.299 25.4402 22.0474 25.2461 22.5463C24.9911 23.206 24.6807 23.6828 24.1873 24.1762C23.6883 24.6751 23.2171 24.98 22.5574 25.235C22.0585 25.4291 21.3045 25.6619 19.9242 25.7229C18.4273 25.7894 17.9783 25.806 14.1919 25.806C10.4 25.806 9.95099 25.7894 8.45973 25.7229C7.0738 25.6619 6.32539 25.4291 5.82646 25.235C5.16675 24.98 4.68999 24.6696 4.1966 24.1762C3.69767 23.6773 3.39276 23.206 3.13775 22.5463C2.94372 22.0474 2.71088 21.2935 2.6499 19.9131C2.58338 18.4163 2.56675 17.9672 2.56675 14.1809C2.56675 10.3889 2.58338 9.9399 2.6499 8.44864C2.71088 7.06271 2.94372 6.3143 3.13775 5.81537C3.39276 5.15567 3.70321 4.67891 4.1966 4.18551C4.69554 3.68658 5.16675 3.38167 5.82646 3.12666C6.32539 2.93263 7.07934 2.69979 8.45973 2.63881C9.95099 2.57229 10.4 2.55566 14.1919 2.55566ZM14.1919 0C10.3391 0 9.85675 0.0166312 8.34331 0.0831559C6.83542 0.149681 5.79874 0.393604 4.90065 0.742859C3.96376 1.10875 3.17101 1.59105 2.3838 2.3838C1.59105 3.17101 1.10875 3.96376 0.742859 4.89511C0.393605 5.79874 0.149681 6.82987 0.0831559 8.33776C0.0166312 9.85675 0 10.3391 0 14.1919C0 18.0448 0.0166312 18.5271 0.0831559 20.0406C0.149681 21.5485 0.393605 22.5851 0.742859 23.4832C1.10875 24.4201 1.59105 25.2129 2.3838 26.0001C3.17101 26.7873 3.96376 27.2751 4.89511 27.6355C5.79874 27.9847 6.82987 28.2287 8.33776 28.2952C9.8512 28.3617 10.3335 28.3783 14.1864 28.3783C18.0393 28.3783 18.5216 28.3617 20.035 28.2952C21.5429 28.2287 22.5796 27.9847 23.4777 27.6355C24.409 27.2751 25.2018 26.7873 25.989 26.0001C26.7762 25.2129 27.264 24.4201 27.6244 23.4888C27.9736 22.5851 28.2176 21.554 28.2841 20.0461C28.3506 18.5327 28.3673 18.0504 28.3673 14.1975C28.3673 10.3446 28.3506 9.86229 28.2841 8.34885C28.2176 6.84096 27.9736 5.80428 27.6244 4.9062C27.2751 3.96376 26.7928 3.17101 26.0001 2.3838C25.2129 1.59659 24.4201 1.10875 23.4888 0.748403C22.5851 0.399148 21.554 0.155224 20.0461 0.0886996C18.5271 0.0166312 18.0448 0 14.1919 0Z" fill="#1E1E1E"/>
<path d="M14.1919 6.90186C10.1671 6.90186 6.90186 10.1671 6.90186 14.1919C6.90186 18.2166 10.1671 21.4819 14.1919 21.4819C18.2166 21.4819 21.4819 18.2166 21.4819 14.1919C21.4819 10.1671 18.2166 6.90186 14.1919 6.90186ZM14.1919 18.9207C11.5808 18.9207 9.46306 16.803 9.46306 14.1919C9.46306 11.5808 11.5808 9.46306 14.1919 9.46306C16.803 9.46306 18.9207 11.5808 18.9207 14.1919C18.9207 16.803 16.803 18.9207 14.1919 18.9207Z" fill="#1E1E1E"/>
<path d="M23.4722 6.61355C23.4722 7.55598 22.7072 8.31547 21.7703 8.31547C20.8279 8.31547 20.0684 7.55044 20.0684 6.61355C20.0684 5.67111 20.8334 4.91162 21.7703 4.91162C22.7072 4.91162 23.4722 5.67666 23.4722 6.61355Z" fill="#1E1E1E"/>
</g>
<defs>
<clipPath id="clip0_546_5325">
<rect width="28.3839" height="28.3839" fill="white"/>
</clipPath>
</defs>
</svg>
