<svg width="29" height="29" viewBox="0 0 29 29" fill="none" xmlns="http://www.w3.org/2000/svg">
<g clip-path="url(#clip0_546_5324)">
<path d="M26.2886 0H2.09528C1.53958 0 1.00664 0.220753 0.613694 0.613694C0.220753 1.00664 0 1.53958 0 2.09528V26.2886C0 26.8443 0.220753 27.3772 0.613694 27.7702C1.00664 28.1631 1.53958 28.3839 2.09528 28.3839H26.2886C26.8443 28.3839 27.3772 28.1631 27.7702 27.7702C28.1631 27.3772 28.3839 26.8443 28.3839 26.2886V2.09528C28.3839 1.53958 28.1631 1.00664 27.7702 0.613694C27.3772 0.220753 26.8443 0 26.2886 0ZM8.45997 24.1795H4.19254V10.6242H8.45997V24.1795ZM6.3233 8.74578C5.83923 8.74306 5.36682 8.597 4.96568 8.32604C4.56455 8.05508 4.25266 7.67137 4.06939 7.22333C3.88613 6.77529 3.83969 6.283 3.93593 5.80859C4.03218 5.33418 4.26681 4.89891 4.6102 4.55772C4.95359 4.21653 5.39035 3.9847 5.86537 3.8915C6.34039 3.7983 6.83237 3.8479 7.27923 4.03404C7.72608 4.22018 8.10778 4.53452 8.37616 4.93739C8.64454 5.34026 8.78756 5.8136 8.78718 6.29767C8.79174 6.62176 8.73101 6.94345 8.60861 7.24357C8.4862 7.54369 8.30463 7.81609 8.07471 8.04454C7.84478 8.27299 7.57122 8.45282 7.27032 8.57329C6.96942 8.69377 6.64735 8.75243 6.3233 8.74578ZM24.1894 24.1913H19.9239V16.7859C19.9239 14.6019 18.9955 13.9278 17.7971 13.9278C16.5316 13.9278 15.2898 14.8818 15.2898 16.8411V24.1913H11.0224V10.6341H15.1262V12.5126H15.1814C15.5934 11.6788 17.0362 10.2537 19.238 10.2537C21.6191 10.2537 24.1913 11.667 24.1913 15.8063L24.1894 24.1913Z" fill="#1E1E1E"/>
</g>
<defs>
<clipPath id="clip0_546_5324">
<rect width="28.3839" height="28.3839" fill="white"/>
</clipPath>
</defs>
</svg>
