<svg width="29" height="20" viewBox="0 0 29 20" fill="none" xmlns="http://www.w3.org/2000/svg">
<path d="M22.5073 19.6479C20.71 19.6479 19.2122 19.0352 18.014 17.8098C16.843 16.5571 16.2576 14.7734 16.2576 12.4587C16.2576 10.3346 16.666 8.45556 17.483 6.82164C18.3 5.18771 19.3212 3.79888 20.5466 2.65513C21.7721 1.51138 23.0111 0.626338 24.2638 0L26.4287 2.45089C25.7479 2.72321 24.9718 3.24062 24.1004 4.00312C23.2562 4.73838 22.5073 5.59619 21.8537 6.57655C21.2274 7.52967 20.887 8.49641 20.8325 9.47676C21.0776 9.14998 21.4997 8.87766 22.0988 8.6598C22.6979 8.44195 23.3243 8.33302 23.9778 8.33302C25.2033 8.33302 26.2926 8.78235 27.2457 9.681C28.2261 10.5524 28.7162 11.7915 28.7162 13.3982C28.7162 15.3044 28.1171 16.8294 26.9189 17.9732C25.7479 19.0897 24.2774 19.6479 22.5073 19.6479ZM6.24976 19.6479C4.45245 19.6479 2.95468 19.0352 1.75647 17.8098C0.58549 16.5571 0 14.7734 0 12.4587C0 10.3346 0.408481 8.45556 1.22544 6.82164C2.04241 5.18771 3.06361 3.79888 4.28905 2.65513C5.5145 1.51138 6.75356 0.626338 8.00623 0L10.1712 2.45089C9.49038 2.72321 8.71427 3.24062 7.84284 4.00312C6.99864 4.73838 6.24976 5.59619 5.59619 6.57655C4.96986 7.52967 4.62945 8.49641 4.57499 9.47676C4.82008 9.14998 5.24218 8.87766 5.84128 8.6598C6.44039 8.44195 7.06673 8.33302 7.7203 8.33302C8.94574 8.33302 10.035 8.78235 10.9881 9.681C11.9685 10.5524 12.4587 11.7915 12.4587 13.3982C12.4587 15.3044 11.8596 16.8294 10.6614 17.9732C9.49038 19.0897 8.01985 19.6479 6.24976 19.6479Z" fill="#1A2D54"/>
</svg>
